<svg xmlns="http://www.w3.org/2000/svg" version="1.1" xmlns:xlink="http://www.w3.org/1999/xlink" xmlns:svgjs="http://svgjs.dev/svgjs" width="1500" height="1500" viewBox="0 0 1500 1500"><rect width="1500" height="1500" fill="#000000"></rect><g transform="matrix(0.6666666666666666,0,0,0.6666666666666666,250,437.6666666666667)"><svg viewBox="0 0 512 320" data-background-color="#001f3f" preserveAspectRatio="xMidYMid meet" height="937" width="1500" xmlns="http://www.w3.org/2000/svg" xmlns:xlink="http://www.w3.org/1999/xlink"><g id="tight-bounds" transform="matrix(1,0,0,1,0,0)"><svg viewBox="0 0 512 320" height="320" width="512"><g><svg></svg></g><g><svg viewBox="0 0 512 320" height="320" width="512"><g><path d="M96 160c0-88.366 71.634-160 160-160 88.366 0 160 71.634 160 160 0 88.366-71.634 160-160 160-88.366 0-160-71.634-160-160zM256 318.162c87.35 0 158.162-70.811 158.162-158.162 0-87.35-70.811-158.162-158.162-158.162-87.35 0-158.162 70.811-158.162 158.162 0 87.35 70.811 158.162 158.162 158.162z" fill="#ffffff" fill-rule="nonzero" stroke="none" stroke-width="1" stroke-linecap="butt" stroke-linejoin="miter" stroke-miterlimit="10" stroke-dasharray="" stroke-dashoffset="0" font-family="none" font-weight="none" font-size="none" text-anchor="none" style="mix-blend-mode: normal" data-fill-palette-color="tertiary"></path></g><g transform="matrix(1,0,0,1,116.13999999999999,20.139999999999986)"><svg viewBox="0 0 279.72 279.72" height="279.72" width="279.72"><g><svg viewBox="0 0 279.72 279.72" height="279.72" width="279.72"><g><svg viewBox="0 0 279.72 279.72" height="279.72" width="279.72"><g id="textblocktransform"><svg viewBox="0 0 279.72 279.72" height="279.72" width="279.72" id="textblock"><g><svg viewBox="0 0 279.72 279.72" height="279.72" width="279.72"><g transform="matrix(1,0,0,1,32.72271604852024,32.72271604852024)"><svg viewBox="0 0 214.27456790295955 214.27456790295955" height="214.27456790295955" width="214.27456790295955"><g id="icon-0"><circle r="1.1e+2" cx="107.13728395147977" cy="107.13728395147977" fill="#ffffff" data-fill-palette-color="accent"></circle><svg xmlns:dc="http://purl.org/dc/elements/1.1/" xmlns:cc="http://creativecommons.org/ns#" xmlns:rdf="http://www.w3.org/1999/02/22-rdf-syntax-ns#" xmlns:svg="http://www.w3.org/2000/svg" xmlns="http://www.w3.org/2000/svg" xmlns:sodipodi="http://sodipodi.sourceforge.net/DTD/sodipodi-0.dtd" xmlns:inkscape="http://www.inkscape.org/namespaces/inkscape" preserveAspectRatio="xMidYMid" viewBox="0 0 58.83222277966961 63" version="1.1" x="32.14118518544393" y="32.14118518544393" height="149.99219753207169" width="149.99219753207169" class="icon-jxe-0" data-fill-palette-color="quaternary" id="jxe-0"><path d="M31.5 0C14.131 0 0 14.131 0 31.5S14.131 63 31.5 63C42.105 63 51.923 57.708 57.781 48.844 58.237 48.154 58.033 47.208 57.344 46.75L34.53 31.563 58.094 17.53C58.804 17.108 59.046 16.18 58.625 15.47 52.975 5.915 42.581 0 31.5 0M31.5 3C41.027 3 49.964 7.85 55.219 15.75L30.938 30.188A1.49 1.49 0 0 0 30.218 31.438 1.48 1.48 0 0 0 30.876 32.718L54.406 48.407C49.034 55.687 40.596 60 31.5 60 15.785 60 3 47.215 3 31.5S15.785 3 31.5 3M28.594 10.344A6.29 6.29 0 0 0 22.312 16.625 6.293 6.293 0 0 0 28.595 22.906C32.054 22.906 34.875 20.085 34.875 16.625 34.875 13.164 32.054 10.344 28.594 10.344M28.594 13.344A3.29 3.29 0 0 1 31.875 16.625 3.29 3.29 0 0 1 28.594 19.906 3.29 3.29 0 0 1 25.312 16.625 3.29 3.29 0 0 1 28.595 13.344" fill="#000000" fill-rule="evenodd" data-fill-palette-color="quaternary"></path></svg></g></svg></g><g id="text-0"><path d="M22.848 107.016v0l2.195-5.825c0.219-0.582 0.235-1.099 0.047-1.551-0.182-0.449-0.482-0.753-0.9-0.91-0.418-0.158-0.847-0.129-1.287 0.086-0.44 0.215-0.769 0.614-0.988 1.196v0l-2.196 5.825c-0.219 0.582-0.235 1.099-0.047 1.551 0.188 0.452 0.491 0.756 0.91 0.914 0.418 0.158 0.844 0.128 1.277-0.09 0.44-0.215 0.769-0.614 0.989-1.196zM18.846 105.508v0l2.196-5.825c0.219-0.582 0.235-1.099 0.047-1.551-0.188-0.452-0.491-0.756-0.91-0.914-0.412-0.155-0.838-0.125-1.277 0.09-0.44 0.215-0.769 0.614-0.988 1.195v0l-2.196 5.826c-0.219 0.582-0.235 1.099-0.047 1.55 0.188 0.452 0.488 0.755 0.9 0.911 0.418 0.158 0.847 0.129 1.287-0.086 0.44-0.215 0.769-0.614 0.988-1.196zM14.835 103.996v0l2.196-5.825c0.219-0.582 0.238-1.097 0.056-1.547-0.188-0.452-0.491-0.756-0.909-0.914-0.418-0.158-0.847-0.129-1.287 0.086-0.44 0.215-0.769 0.614-0.989 1.196v0l-2.195 5.825c-0.219 0.582-0.235 1.099-0.047 1.551 0.188 0.452 0.491 0.756 0.91 0.914 0.418 0.158 0.847 0.129 1.287-0.086 0.433-0.218 0.759-0.617 0.978-1.2zM10.834 102.488v0l2.196-5.825c0.219-0.582 0.235-1.099 0.046-1.551-0.188-0.452-0.491-0.756-0.91-0.914-0.412-0.155-0.838-0.125-1.277 0.09-0.44 0.215-0.769 0.614-0.988 1.195v0l-2.196 5.826c-0.219 0.582-0.235 1.099-0.046 1.55 0.188 0.452 0.488 0.755 0.9 0.911 0.418 0.158 0.847 0.129 1.287-0.086 0.44-0.215 0.769-0.614 0.988-1.196zM16.874 86.463v0l2.192-5.816c0.222-0.588 0.239-1.109 0.05-1.56-0.188-0.452-0.491-0.756-0.909-0.914-0.412-0.155-0.838-0.125-1.278 0.09-0.44 0.215-0.77 0.617-0.992 1.205v0l-2.192 5.816c-0.219 0.582-0.235 1.099-0.046 1.55 0.186 0.458 0.484 0.765 0.896 0.921 0.418 0.158 0.849 0.126 1.291-0.096 0.44-0.215 0.769-0.614 0.988-1.196zM6.832 100.98v0l6.724-17.84c0.219-0.582 0.235-1.099 0.047-1.55-0.188-0.452-0.491-0.756-0.91-0.914-0.418-0.158-0.847-0.129-1.287 0.086-0.44 0.215-0.769 0.614-0.988 1.196v0l-6.724 17.839c-0.219 0.582-0.235 1.099-0.047 1.55 0.188 0.452 0.491 0.756 0.91 0.915 0.418 0.158 0.847 0.129 1.287-0.087 0.44-0.215 0.769-0.614 0.988-1.195z" fill="#ffffff" data-fill-palette-color="primary"></path><path d="M40.793 71.141v0l9.017-11.708c0.379-0.493 0.545-0.982 0.497-1.47-0.043-0.483-0.241-0.86-0.595-1.133-0.354-0.273-0.773-0.37-1.256-0.293-0.483 0.078-0.914 0.363-1.294 0.856v0l-9.018 11.708c-0.384 0.498-0.551 0.991-0.503 1.477 0.048 0.487 0.25 0.867 0.604 1.14 0.354 0.273 0.77 0.368 1.248 0.286 0.483-0.078 0.917-0.366 1.3-0.863zM34.79 71.927v0l3.798-4.932c0.379-0.493 0.545-0.982 0.497-1.469-0.048-0.487-0.25-0.867-0.604-1.14-0.349-0.269-0.765-0.364-1.247-0.286-0.483 0.078-0.914 0.363-1.294 0.855v0l-3.799 4.932c-0.379 0.493-0.545 0.982-0.497 1.47 0.048 0.487 0.247 0.865 0.596 1.133 0.354 0.273 0.773 0.37 1.256 0.293 0.483-0.078 0.914-0.363 1.294-0.856zM31.394 69.312v0l14.242-18.492c0.384-0.498 0.554-0.989 0.511-1.471-0.048-0.487-0.25-0.867-0.604-1.14-0.354-0.273-0.773-0.37-1.256-0.293-0.483 0.078-0.917 0.366-1.3 0.864v0l-14.242 18.492c-0.379 0.493-0.545 0.982-0.497 1.469 0.048 0.487 0.25 0.867 0.604 1.14 0.354 0.273 0.773 0.37 1.256 0.293 0.478-0.082 0.906-0.369 1.286-0.862zM28.006 66.703v0l3.799-4.933c0.379-0.493 0.545-0.982 0.496-1.469-0.048-0.487-0.25-0.867-0.604-1.14-0.349-0.269-0.765-0.364-1.247-0.286-0.483 0.078-0.914 0.363-1.294 0.855v0l-3.799 4.933c-0.379 0.493-0.545 0.982-0.497 1.469 0.048 0.487 0.247 0.865 0.596 1.133 0.354 0.273 0.773 0.37 1.256 0.293 0.483-0.078 0.914-0.363 1.294-0.855zM38.456 53.135v0l3.792-4.924c0.384-0.498 0.551-0.991 0.503-1.478-0.048-0.487-0.25-0.867-0.604-1.14-0.349-0.269-0.765-0.364-1.248-0.286-0.483 0.078-0.917 0.366-1.3 0.864v0l-3.792 4.924c-0.379 0.493-0.545 0.982-0.497 1.469 0.044 0.492 0.24 0.873 0.589 1.142 0.354 0.273 0.775 0.368 1.263 0.284 0.483-0.078 0.914-0.363 1.294-0.855zM27.234 60.697v0l9.017-11.708c0.379-0.493 0.545-0.982 0.497-1.469-0.048-0.487-0.25-0.867-0.604-1.14-0.354-0.273-0.773-0.37-1.256-0.293-0.483 0.078-0.914 0.363-1.294 0.856v0l-9.017 11.708c-0.384 0.498-0.551 0.991-0.504 1.478 0.048 0.487 0.25 0.867 0.604 1.139 0.354 0.273 0.773 0.37 1.256 0.293 0.483-0.078 0.917-0.366 1.301-0.864z" fill="#ffffff" data-fill-palette-color="primary"></path><path d="M72.774 40.505v0l8.559-6.086c0.512-0.364 0.817-0.787 0.912-1.266 0.1-0.474 0.021-0.893-0.238-1.258-0.259-0.364-0.631-0.58-1.116-0.647-0.485-0.067-0.983 0.082-1.496 0.447v0l-8.558 6.085c-0.507 0.36-0.808 0.78-0.905 1.261-0.096 0.48-0.015 0.902 0.245 1.266 0.259 0.364 0.629 0.577 1.11 0.638 0.485 0.067 0.981-0.08 1.487-0.44zM66.811 39.498v0l5.074-3.607c0.507-0.36 0.808-0.78 0.904-1.261 0.096-0.48 0.015-0.902-0.245-1.266-0.255-0.359-0.625-0.572-1.109-0.639-0.485-0.067-0.981 0.08-1.488 0.441v0l-5.073 3.608c-0.507 0.36-0.808 0.78-0.905 1.26-0.096 0.48-0.017 0.899 0.239 1.258 0.259 0.364 0.631 0.58 1.116 0.647 0.485 0.067 0.981-0.08 1.487-0.441zM64.327 36.005v0l5.074-3.608c0.507-0.36 0.81-0.778 0.91-1.252 0.096-0.48 0.015-0.902-0.245-1.266-0.259-0.364-0.631-0.58-1.116-0.647-0.485-0.067-0.981 0.08-1.487 0.44v0l-5.074 3.608c-0.507 0.36-0.808 0.78-0.904 1.26-0.096 0.48-0.015 0.902 0.245 1.267 0.259 0.364 0.631 0.58 1.116 0.647 0.481 0.061 0.974-0.088 1.481-0.449zM61.849 32.52v0l5.074-3.608c0.507-0.36 0.808-0.78 0.904-1.26 0.096-0.48 0.015-0.902-0.245-1.267-0.255-0.359-0.625-0.572-1.11-0.638-0.485-0.067-0.981 0.08-1.487 0.44v0l-5.074 3.608c-0.507 0.36-0.808 0.78-0.904 1.261-0.096 0.48-0.017 0.899 0.239 1.257 0.259 0.364 0.631 0.58 1.116 0.647 0.485 0.067 0.981-0.08 1.487-0.44zM52.392 33.997v0l19.022-13.526c0.512-0.364 0.817-0.787 0.913-1.266 0.096-0.48 0.015-0.902-0.245-1.267-0.259-0.364-0.631-0.58-1.115-0.647-0.485-0.067-0.983 0.082-1.496 0.447v0l-19.022 13.526c-0.507 0.36-0.808 0.78-0.904 1.26-0.096 0.48-0.015 0.902 0.244 1.267 0.259 0.364 0.631 0.58 1.116 0.647 0.485 0.067 0.981-0.08 1.487-0.441zM56.887 25.542v0l5.073-3.608c0.507-0.36 0.808-0.78 0.905-1.261 0.096-0.48 0.017-0.899-0.239-1.257-0.259-0.364-0.631-0.58-1.116-0.647-0.485-0.067-0.981 0.08-1.487 0.44v0l-5.074 3.608c-0.507 0.36-0.808 0.78-0.904 1.26-0.096 0.48-0.015 0.902 0.245 1.267 0.255 0.359 0.625 0.572 1.109 0.638 0.485 0.067 0.981-0.08 1.488-0.44z" fill="#ffffff" data-fill-palette-color="primary"></path><path d="M93.158 29.552v0l5.906-1.972c0.59-0.197 1.001-0.511 1.232-0.942 0.234-0.424 0.28-0.849 0.139-1.272-0.142-0.424-0.435-0.739-0.879-0.945-0.444-0.205-0.961-0.209-1.551-0.012v0l-5.905 1.972c-0.59 0.197-1.001 0.511-1.233 0.941-0.232 0.431-0.277 0.859-0.135 1.283 0.142 0.424 0.433 0.736 0.875 0.934 0.444 0.205 0.961 0.209 1.551 0.013zM91.804 25.496v0l5.905-1.972c0.59-0.197 1.001-0.511 1.233-0.942 0.232-0.431 0.277-0.859 0.135-1.282-0.139-0.418-0.431-0.729-0.875-0.935-0.444-0.205-0.961-0.209-1.552-0.012v0l-5.905 1.971c-0.59 0.197-1.001 0.511-1.232 0.942-0.232 0.431-0.278 0.855-0.139 1.273 0.142 0.424 0.435 0.739 0.879 0.944 0.444 0.205 0.961 0.209 1.551 0.013zM90.447 21.43v0l5.905-1.972c0.59-0.197 1.002-0.508 1.236-0.932 0.232-0.431 0.277-0.859 0.135-1.283-0.142-0.424-0.435-0.739-0.879-0.944-0.444-0.205-0.961-0.209-1.551-0.012v0l-5.905 1.971c-0.59 0.197-1.001 0.511-1.233 0.942-0.232 0.431-0.277 0.859-0.135 1.283 0.142 0.424 0.435 0.739 0.879 0.944 0.442 0.199 0.958 0.199 1.548 0.003zM89.092 17.374v0l5.906-1.972c0.59-0.197 1.001-0.511 1.232-0.942 0.232-0.431 0.277-0.859 0.135-1.282-0.139-0.418-0.431-0.729-0.875-0.935-0.444-0.205-0.961-0.209-1.551-0.012v0l-5.905 1.971c-0.59 0.197-1.001 0.511-1.233 0.942-0.232 0.431-0.278 0.855-0.138 1.273 0.142 0.424 0.435 0.739 0.878 0.944 0.444 0.205 0.961 0.209 1.551 0.013zM105.336 11.95v0l5.896-1.968c0.596-0.199 1.011-0.514 1.242-0.945 0.232-0.431 0.277-0.859 0.135-1.283-0.139-0.418-0.431-0.729-0.875-0.934-0.444-0.205-0.965-0.208-1.561-0.009v0l-5.895 1.968c-0.59 0.197-1.001 0.511-1.233 0.942-0.238 0.433-0.288 0.859-0.148 1.276 0.142 0.424 0.438 0.738 0.888 0.941 0.444 0.205 0.961 0.209 1.551 0.012zM87.738 13.318v0l18.083-6.038c0.59-0.197 1.001-0.511 1.233-0.942 0.232-0.431 0.277-0.859 0.135-1.283-0.142-0.424-0.435-0.739-0.879-0.944-0.444-0.205-0.961-0.209-1.551-0.012v0l-18.083 6.037c-0.59 0.197-1.001 0.511-1.232 0.942-0.232 0.431-0.277 0.859-0.136 1.283 0.142 0.424 0.435 0.739 0.879 0.944 0.444 0.205 0.961 0.209 1.551 0.013z" fill="#ffffff" data-fill-palette-color="primary"></path><path d="M132.313 20.849v0l14.773-0.386c0.622-0.016 1.106-0.197 1.453-0.541 0.348-0.338 0.516-0.73 0.504-1.177-0.012-0.447-0.2-0.834-0.565-1.159-0.365-0.326-0.858-0.481-1.48-0.465v0l-14.772 0.385c-0.629 0.016-1.117 0.197-1.465 0.542-0.347 0.345-0.515 0.74-0.503 1.187 0.012 0.447 0.2 0.83 0.564 1.149 0.365 0.326 0.862 0.481 1.491 0.465zM127.916 16.686v0l6.223-0.163c0.622-0.016 1.106-0.197 1.454-0.541 0.347-0.345 0.515-0.74 0.504-1.187-0.011-0.44-0.2-0.823-0.565-1.149-0.365-0.326-0.858-0.481-1.48-0.465v0l-6.223 0.162c-0.622 0.016-1.106 0.197-1.454 0.542-0.347 0.345-0.515 0.737-0.504 1.177 0.012 0.447 0.2 0.834 0.565 1.159 0.365 0.326 0.858 0.481 1.48 0.465zM145.036 16.239v0l6.213-0.162c0.629-0.016 1.117-0.197 1.464-0.542 0.347-0.345 0.515-0.74 0.504-1.187-0.011-0.44-0.2-0.823-0.565-1.149-0.365-0.326-0.862-0.481-1.491-0.464v0l-6.212 0.162c-0.622 0.016-1.106 0.197-1.454 0.541-0.354 0.345-0.526 0.737-0.515 1.177 0.012 0.447 0.203 0.833 0.576 1.159 0.365 0.326 0.858 0.481 1.48 0.465zM127.804 12.401v0l6.224-0.163c0.622-0.016 1.106-0.193 1.454-0.531 0.347-0.345 0.515-0.74 0.503-1.187-0.012-0.447-0.2-0.834-0.565-1.159-0.365-0.326-0.858-0.481-1.48-0.465v0l-6.223 0.162c-0.622 0.016-1.106 0.197-1.454 0.542-0.347 0.345-0.515 0.74-0.503 1.187 0.012 0.447 0.2 0.834 0.565 1.159 0.365 0.319 0.858 0.47 1.479 0.455zM144.924 11.954v0l6.213-0.162c0.629-0.016 1.117-0.193 1.464-0.531 0.347-0.345 0.515-0.74 0.504-1.188-0.012-0.447-0.2-0.834-0.565-1.159-0.365-0.326-0.862-0.481-1.49-0.465v0l-6.213 0.163c-0.622 0.016-1.106 0.197-1.454 0.541-0.354 0.345-0.526 0.741-0.514 1.187 0.012 0.447 0.203 0.833 0.575 1.16 0.365 0.319 0.858 0.47 1.48 0.454zM127.693 8.126v0l6.223-0.163c0.622-0.016 1.106-0.197 1.454-0.541 0.347-0.345 0.515-0.74 0.503-1.187-0.011-0.44-0.2-0.823-0.564-1.149-0.365-0.326-0.858-0.481-1.48-0.465v0l-6.224 0.163c-0.622 0.016-1.106 0.197-1.453 0.541-0.347 0.345-0.515 0.737-0.504 1.177 0.012 0.447 0.2 0.834 0.565 1.159 0.365 0.326 0.858 0.481 1.48 0.465zM144.812 7.679v0l6.213-0.162c0.629-0.016 1.117-0.197 1.464-0.541 0.347-0.345 0.515-0.74 0.504-1.188-0.011-0.44-0.2-0.823-0.564-1.149-0.365-0.326-0.862-0.481-1.491-0.464v0l-6.213 0.162c-0.622 0.016-1.106 0.197-1.454 0.541-0.354 0.345-0.526 0.737-0.514 1.177 0.012 0.447 0.203 0.833 0.575 1.159 0.365 0.326 0.858 0.481 1.48 0.465zM131.866 3.739v0l14.773-0.385c0.622-0.016 1.106-0.197 1.454-0.541 0.347-0.345 0.515-0.74 0.503-1.188-0.012-0.447-0.2-0.834-0.564-1.159-0.365-0.326-0.858-0.481-1.48-0.465v0l-14.773 0.386c-0.629 0.016-1.117 0.197-1.464 0.541-0.347 0.345-0.515 0.74-0.504 1.188 0.012 0.447 0.2 0.834 0.565 1.159 0.365 0.326 0.862 0.481 1.49 0.464z" fill="#ffffff" data-fill-palette-color="primary"></path><path d="M168.214 23.947v0l14.305 3.708c0.602 0.156 1.117 0.116 1.547-0.119 0.427-0.228 0.697-0.559 0.809-0.992 0.112-0.433 0.038-0.856-0.223-1.27-0.261-0.414-0.692-0.699-1.294-0.855v0l-14.305-3.709c-0.609-0.158-1.128-0.119-1.557 0.116-0.429 0.235-0.7 0.569-0.812 1.003-0.112 0.433-0.037 0.853 0.226 1.26 0.261 0.414 0.696 0.7 1.304 0.858zM165.138 18.732v0l6.026 1.562c0.602 0.156 1.117 0.116 1.547-0.119 0.429-0.235 0.7-0.569 0.812-1.002 0.11-0.426 0.035-0.846-0.226-1.26-0.261-0.414-0.692-0.699-1.294-0.856v0l-6.026-1.562c-0.602-0.156-1.117-0.116-1.547 0.119-0.429 0.235-0.699 0.566-0.809 0.992-0.112 0.433-0.038 0.856 0.222 1.27 0.261 0.414 0.692 0.699 1.295 0.856zM166.213 14.582v0l6.027 1.562c0.602 0.156 1.117 0.12 1.544-0.108 0.429-0.235 0.7-0.569 0.812-1.002 0.112-0.433 0.038-0.856-0.223-1.271-0.261-0.414-0.692-0.699-1.294-0.855v0l-6.027-1.562c-0.602-0.156-1.117-0.116-1.546 0.119-0.429 0.235-0.7 0.569-0.812 1.002-0.112 0.433-0.038 0.856 0.223 1.27 0.263 0.407 0.695 0.689 1.296 0.845zM167.286 10.443v0l6.027 1.562c0.602 0.156 1.117 0.116 1.546-0.119 0.429-0.235 0.7-0.569 0.812-1.002 0.11-0.426 0.035-0.846-0.225-1.26-0.261-0.414-0.692-0.699-1.294-0.855v0l-6.027-1.563c-0.602-0.156-1.117-0.116-1.546 0.119-0.429 0.235-0.699 0.566-0.81 0.992-0.112 0.433-0.038 0.856 0.223 1.271 0.261 0.414 0.692 0.699 1.294 0.855zM172.509 7.379v0l14.305 3.709c0.602 0.156 1.117 0.116 1.547-0.119 0.429-0.235 0.7-0.569 0.812-1.002 0.112-0.433 0.038-0.856-0.223-1.271-0.261-0.414-0.692-0.699-1.294-0.855v0l-14.305-3.708c-0.609-0.158-1.128-0.119-1.557 0.116-0.429 0.235-0.7 0.569-0.812 1.002-0.112 0.433-0.038 0.856 0.223 1.27 0.261 0.414 0.696 0.7 1.304 0.858z" fill="#ffffff" data-fill-palette-color="primary"></path><path d="M201.235 37.549v0l16.084 10.217c0.531 0.337 1.037 0.46 1.517 0.367 0.477-0.086 0.835-0.318 1.075-0.695 0.24-0.377 0.299-0.803 0.178-1.278-0.121-0.474-0.447-0.88-0.978-1.217v0l-16.083-10.216c-0.531-0.337-1.037-0.46-1.517-0.368-0.481 0.092-0.841 0.327-1.081 0.704-0.24 0.377-0.297 0.8-0.172 1.269 0.121 0.474 0.447 0.88 0.977 1.217zM199.91 31.641v0l5.255 3.338c0.525 0.333 1.028 0.454 1.508 0.362 0.481-0.092 0.841-0.327 1.081-0.704 0.236-0.372 0.294-0.794 0.172-1.269-0.121-0.474-0.444-0.878-0.968-1.211v0l-5.255-3.338c-0.525-0.333-1.028-0.454-1.509-0.362-0.481 0.092-0.839 0.324-1.075 0.695-0.24 0.377-0.299 0.803-0.178 1.278 0.121 0.474 0.444 0.878 0.969 1.211zM214.365 40.824v0l5.247 3.332c0.531 0.337 1.037 0.46 1.517 0.368 0.481-0.092 0.841-0.327 1.08-0.704 0.236-0.372 0.294-0.794 0.173-1.269-0.121-0.474-0.447-0.88-0.978-1.217v0l-5.246-3.332c-0.525-0.333-1.028-0.454-1.508-0.363-0.487 0.088-0.848 0.318-1.084 0.69-0.24 0.377-0.296 0.805-0.169 1.283 0.121 0.474 0.444 0.878 0.968 1.212zM205.827 30.321v0l16.083 10.217c0.531 0.337 1.035 0.463 1.512 0.376 0.481-0.092 0.841-0.327 1.08-0.704 0.24-0.377 0.299-0.803 0.178-1.277-0.121-0.474-0.447-0.88-0.977-1.217v0l-16.084-10.217c-0.531-0.337-1.037-0.46-1.517-0.368-0.481 0.092-0.841 0.327-1.08 0.704-0.24 0.377-0.299 0.803-0.179 1.278 0.125 0.468 0.452 0.871 0.984 1.208zM218.957 33.596v0l5.246 3.332c0.531 0.337 1.037 0.46 1.517 0.368 0.481-0.092 0.841-0.327 1.081-0.704 0.236-0.372 0.294-0.794 0.172-1.269-0.121-0.474-0.447-0.88-0.977-1.217v0l-5.247-3.332c-0.525-0.333-1.028-0.454-1.508-0.362-0.487 0.088-0.848 0.318-1.084 0.689-0.24 0.377-0.296 0.805-0.169 1.283 0.121 0.474 0.444 0.878 0.969 1.212zM210.412 23.102v0l12.474 7.924c0.525 0.333 1.028 0.454 1.509 0.362 0.481-0.092 0.841-0.327 1.08-0.704 0.24-0.377 0.299-0.803 0.178-1.278-0.121-0.474-0.444-0.878-0.968-1.211v0l-12.474-7.924c-0.531-0.337-1.037-0.46-1.517-0.368-0.481 0.092-0.841 0.327-1.081 0.705-0.24 0.377-0.299 0.803-0.178 1.277 0.121 0.474 0.447 0.88 0.977 1.217z" fill="#ffffff" data-fill-palette-color="primary"></path><path d="M226.278 56.886v0l12.406 14.476c0.405 0.472 0.85 0.734 1.336 0.787 0.481 0.057 0.892-0.06 1.231-0.351 0.34-0.291 0.521-0.681 0.544-1.17 0.023-0.489-0.168-0.969-0.573-1.441v0l-12.406-14.476c-0.405-0.472-0.85-0.734-1.336-0.787-0.487-0.052-0.9 0.067-1.239 0.358-0.34 0.291-0.518 0.679-0.536 1.163-0.023 0.489 0.168 0.969 0.573 1.441zM240.669 67.108v0l4.044 4.719c0.409 0.477 0.857 0.742 1.344 0.795 0.487 0.052 0.9-0.067 1.239-0.358 0.334-0.286 0.513-0.674 0.535-1.163 0.023-0.489-0.17-0.972-0.579-1.45v0l-4.045-4.719c-0.405-0.472-0.85-0.734-1.336-0.787-0.491-0.058-0.904 0.057-1.238 0.343-0.34 0.291-0.518 0.684-0.537 1.178-0.023 0.489 0.168 0.969 0.573 1.442zM235.569 54.569v0l9.616 11.221c0.405 0.472 0.848 0.737 1.329 0.794 0.487 0.052 0.9-0.067 1.239-0.358 0.34-0.291 0.521-0.681 0.544-1.17 0.023-0.489-0.168-0.969-0.573-1.441v0l-9.616-11.221c-0.409-0.477-0.857-0.742-1.344-0.795-0.487-0.052-0.9 0.067-1.239 0.358-0.34 0.291-0.521 0.681-0.544 1.17-0.017 0.484 0.178 0.965 0.588 1.442zM236.027 48.532v0l4.051 4.727c0.405 0.472 0.85 0.734 1.337 0.787 0.487 0.052 0.9-0.067 1.239-0.358 0.334-0.286 0.513-0.674 0.535-1.163 0.023-0.489-0.168-0.969-0.573-1.441v0l-4.051-4.728c-0.405-0.472-0.85-0.734-1.337-0.786-0.487-0.052-0.897 0.065-1.231 0.351-0.34 0.291-0.521 0.681-0.543 1.169-0.023 0.489 0.168 0.969 0.573 1.442zM242.063 49.004v0l12.399 14.468c0.409 0.477 0.857 0.742 1.343 0.795 0.487 0.052 0.9-0.067 1.24-0.358 0.34-0.291 0.521-0.681 0.543-1.17 0.023-0.489-0.17-0.972-0.58-1.449v0l-12.398-14.468c-0.409-0.477-0.857-0.742-1.344-0.795-0.487-0.052-0.9 0.067-1.239 0.358-0.34 0.291-0.521 0.681-0.544 1.17-0.023 0.489 0.17 0.972 0.58 1.449z" fill="#ffffff" data-fill-palette-color="primary"></path><path d="M252.528 97.711v0l4.212 9.62c0.252 0.576 0.603 0.96 1.053 1.152 0.444 0.195 0.87 0.202 1.28 0.023 0.41-0.179 0.697-0.499 0.861-0.961 0.164-0.461 0.12-0.979-0.132-1.555v0l-4.211-9.62c-0.249-0.57-0.599-0.95-1.05-1.143-0.45-0.192-0.88-0.198-1.289-0.018-0.41 0.179-0.693 0.498-0.852 0.956-0.164 0.461-0.122 0.976 0.128 1.546zM254.73 92.079v0l2.497 5.702c0.249 0.57 0.599 0.95 1.049 1.143 0.45 0.192 0.88 0.198 1.29 0.019 0.403-0.177 0.687-0.495 0.851-0.957 0.164-0.461 0.122-0.976-0.127-1.545v0l-2.497-5.703c-0.249-0.57-0.599-0.95-1.05-1.143-0.45-0.192-0.877-0.2-1.28-0.023-0.41 0.179-0.697 0.499-0.861 0.961-0.164 0.461-0.122 0.976 0.128 1.546zM258.657 90.359v0l2.497 5.703c0.249 0.57 0.596 0.952 1.039 1.147 0.45 0.192 0.88 0.198 1.29 0.019 0.41-0.179 0.697-0.499 0.861-0.961 0.164-0.461 0.122-0.976-0.128-1.546v0l-2.497-5.703c-0.249-0.57-0.599-0.95-1.049-1.142-0.45-0.192-0.88-0.198-1.29-0.019-0.41 0.179-0.697 0.499-0.86 0.961-0.158 0.458-0.112 0.972 0.137 1.541zM262.574 88.644v0l2.497 5.703c0.249 0.57 0.599 0.95 1.049 1.143 0.45 0.192 0.88 0.198 1.29 0.018 0.403-0.177 0.687-0.495 0.851-0.956 0.164-0.461 0.122-0.976-0.128-1.546v0l-2.496-5.703c-0.249-0.57-0.599-0.95-1.05-1.142-0.45-0.192-0.877-0.2-1.28-0.023-0.41 0.179-0.697 0.499-0.861 0.96-0.164 0.461-0.122 0.976 0.128 1.546zM263.057 79.085v0l9.361 21.382c0.252 0.576 0.603 0.96 1.053 1.152 0.45 0.192 0.88 0.198 1.29 0.018 0.41-0.179 0.697-0.499 0.861-0.96 0.164-0.461 0.12-0.979-0.132-1.555v0l-9.361-21.382c-0.249-0.57-0.599-0.95-1.049-1.142-0.45-0.192-0.88-0.198-1.29-0.019-0.41 0.179-0.697 0.499-0.861 0.96-0.164 0.461-0.122 0.976 0.128 1.546zM270.418 85.21v0l2.497 5.703c0.249 0.57 0.599 0.95 1.049 1.142 0.45 0.192 0.877 0.2 1.28 0.024 0.41-0.179 0.697-0.499 0.861-0.961 0.164-0.461 0.122-0.976-0.128-1.546v0l-2.496-5.703c-0.249-0.57-0.599-0.95-1.05-1.142-0.45-0.192-0.88-0.198-1.289-0.019-0.403 0.177-0.687 0.495-0.852 0.956-0.164 0.461-0.122 0.976 0.128 1.546z" fill="#ffffff" data-fill-palette-color="primary"></path><path d="M4.585 142.978c0-1.596 1.294-2.89 2.89-2.891 1.596 0 2.89 1.294 2.89 2.891 0 1.596-1.294 2.89-2.89 2.89-1.596 0-2.89-1.294-2.89-2.89z" fill="#ffffff" data-fill-palette-color="primary"></path><path d="M268.441 142.978c0-1.596 1.294-2.89 2.89-2.891 1.596 0 2.89 1.294 2.89 2.891 0 1.596-1.294 2.89-2.89 2.89-1.596 0-2.89-1.294-2.89-2.89z" fill="#ffffff" data-fill-palette-color="primary"></path></g><g id="text-1"><path d="M16.13 200.808v0l2.604 5.458c0.108 0.227 0.257 0.377 0.446 0.449 0.183 0.075 0.36 0.072 0.53-0.009 0.164-0.078 0.274-0.212 0.331-0.402 0.063-0.193 0.04-0.402-0.068-0.629v0l-2.604-5.458c-0.111-0.233-0.262-0.386-0.451-0.459-0.18-0.069-0.352-0.064-0.516 0.014-0.17 0.081-0.285 0.213-0.345 0.397-0.063 0.193-0.039 0.406 0.073 0.639zM16.956 198.474v0l1.097 2.299c0.108 0.227 0.257 0.377 0.446 0.449 0.189 0.072 0.366 0.069 0.53-0.009 0.164-0.078 0.274-0.212 0.331-0.402 0.063-0.193 0.04-0.402-0.068-0.629v0l-1.097-2.299c-0.111-0.233-0.262-0.386-0.451-0.458-0.183-0.075-0.356-0.074-0.52 0.004-0.164 0.078-0.277 0.214-0.341 0.406-0.063 0.193-0.039 0.406 0.073 0.639zM19.971 204.793v0l1.096 2.299c0.111 0.233 0.26 0.383 0.447 0.449 0.189 0.072 0.366 0.069 0.53-0.009 0.164-0.078 0.274-0.212 0.331-0.402 0.066-0.186 0.043-0.396-0.068-0.629v0l-1.097-2.299c-0.108-0.227-0.257-0.377-0.447-0.449-0.183-0.075-0.356-0.074-0.52 0.004-0.164 0.078-0.277 0.214-0.34 0.407-0.063 0.193-0.04 0.402 0.068 0.629zM18.536 197.721v0l1.096 2.298c0.108 0.227 0.257 0.377 0.447 0.449 0.189 0.072 0.366 0.069 0.53-0.009 0.164-0.078 0.274-0.212 0.33-0.402 0.063-0.193 0.04-0.402-0.068-0.629v0l-1.096-2.299c-0.111-0.233-0.262-0.386-0.451-0.458-0.183-0.075-0.356-0.074-0.521 0.005-0.164 0.078-0.277 0.214-0.34 0.406-0.063 0.193-0.039 0.406 0.073 0.639zM21.55 204.039v0l1.097 2.299c0.111 0.233 0.26 0.383 0.447 0.449 0.189 0.072 0.366 0.069 0.529-0.009 0.164-0.078 0.274-0.212 0.331-0.402 0.066-0.186 0.043-0.396-0.068-0.629v0l-1.096-2.299c-0.108-0.227-0.257-0.377-0.447-0.449-0.183-0.075-0.356-0.074-0.52 0.005-0.164 0.078-0.277 0.214-0.341 0.406-0.063 0.193-0.04 0.402 0.068 0.629zM20.125 196.962v0l1.096 2.299c0.108 0.227 0.254 0.378 0.437 0.454 0.189 0.072 0.366 0.069 0.53-0.009 0.164-0.078 0.277-0.214 0.341-0.407 0.057-0.19 0.031-0.398-0.078-0.625v0l-1.097-2.298c-0.111-0.233-0.258-0.388-0.441-0.463-0.189-0.072-0.366-0.069-0.53 0.009-0.164 0.078-0.277 0.214-0.34 0.406-0.057 0.19-0.029 0.401 0.082 0.634zM22.386 201.702v0l1.85 3.878c0.111 0.233 0.257 0.384 0.437 0.453 0.189 0.072 0.366 0.069 0.53-0.009 0.164-0.078 0.277-0.214 0.34-0.406 0.06-0.183 0.034-0.392-0.077-0.625v0l-1.85-3.878c-0.108-0.227-0.254-0.378-0.437-0.454-0.189-0.072-0.366-0.069-0.53 0.009-0.164 0.078-0.277 0.214-0.341 0.407-0.057 0.19-0.031 0.398 0.078 0.625zM21.704 196.209v0l1.097 2.298c0.108 0.227 0.254 0.378 0.437 0.454 0.189 0.072 0.366 0.069 0.53-0.009 0.164-0.078 0.277-0.214 0.34-0.406 0.057-0.19 0.031-0.398-0.077-0.625v0l-1.097-2.299c-0.111-0.233-0.258-0.388-0.441-0.463-0.189-0.072-0.366-0.069-0.53 0.009-0.164 0.078-0.277 0.214-0.341 0.406-0.057 0.19-0.029 0.401 0.082 0.635zM23.284 195.455v0l1.097 2.299c0.108 0.227 0.254 0.378 0.437 0.453 0.189 0.072 0.366 0.069 0.53-0.009 0.164-0.078 0.277-0.214 0.34-0.406 0.057-0.19 0.031-0.398-0.077-0.625v0l-1.097-2.299c-0.111-0.233-0.258-0.388-0.442-0.463-0.189-0.072-0.366-0.069-0.53 0.009-0.164 0.078-0.277 0.214-0.34 0.407-0.057 0.19-0.029 0.401 0.082 0.634zM26.299 201.774v0l1.097 2.298c0.111 0.233 0.257 0.384 0.437 0.454 0.189 0.072 0.366 0.069 0.529-0.009 0.164-0.078 0.277-0.214 0.341-0.406 0.06-0.183 0.034-0.392-0.078-0.625v0l-1.096-2.299c-0.108-0.227-0.254-0.378-0.437-0.453-0.189-0.072-0.366-0.069-0.53 0.009-0.164 0.078-0.277 0.214-0.341 0.406-0.057 0.19-0.031 0.398 0.078 0.625zM25.617 196.281v0l2.605 5.458c0.108 0.227 0.254 0.378 0.437 0.453 0.189 0.072 0.366 0.069 0.529-0.008 0.164-0.078 0.277-0.214 0.341-0.407 0.057-0.19 0.031-0.398-0.078-0.625v0l-2.604-5.458c-0.111-0.233-0.258-0.388-0.441-0.463-0.186-0.066-0.361-0.06-0.526 0.019-0.164 0.078-0.279 0.21-0.345 0.397-0.057 0.19-0.029 0.401 0.082 0.634z" fill="#ffffff" data-fill-palette-color="primary"></path><path d="M22.868 213.552v0l3.167 5.152c0.132 0.214 0.296 0.347 0.492 0.399 0.19 0.055 0.365 0.034 0.526-0.065 0.155-0.095 0.25-0.24 0.286-0.435 0.042-0.198-0.003-0.404-0.134-0.619v0l-3.168-5.151c-0.135-0.22-0.301-0.356-0.496-0.408-0.186-0.05-0.357-0.027-0.512 0.068-0.161 0.099-0.261 0.242-0.301 0.431-0.042 0.198 0.004 0.407 0.14 0.628zM23.442 211.144v0l1.334 2.17c0.132 0.214 0.296 0.347 0.492 0.399 0.196 0.052 0.371 0.03 0.526-0.065 0.155-0.095 0.25-0.24 0.286-0.435 0.042-0.198-0.003-0.404-0.134-0.618v0l-1.334-2.17c-0.135-0.22-0.301-0.356-0.497-0.408-0.19-0.055-0.362-0.036-0.517 0.06-0.155 0.095-0.253 0.242-0.296 0.44-0.042 0.198 0.004 0.407 0.14 0.627zM27.109 217.108v0l1.334 2.17c0.135 0.22 0.299 0.353 0.491 0.399 0.196 0.052 0.371 0.03 0.526-0.065 0.155-0.095 0.25-0.24 0.287-0.435 0.046-0.192 0.001-0.398-0.134-0.618v0l-1.334-2.17c-0.132-0.214-0.296-0.347-0.492-0.399-0.19-0.055-0.362-0.036-0.517 0.06-0.155 0.095-0.253 0.242-0.295 0.44-0.042 0.198 0.003 0.404 0.134 0.618zM24.933 210.228v0l1.334 2.169c0.132 0.214 0.296 0.347 0.492 0.399 0.196 0.052 0.371 0.03 0.526-0.065 0.155-0.095 0.25-0.24 0.286-0.434 0.042-0.198-0.003-0.404-0.134-0.619v0l-1.334-2.17c-0.135-0.22-0.301-0.356-0.497-0.408-0.19-0.055-0.362-0.036-0.517 0.06-0.155 0.095-0.253 0.242-0.296 0.44-0.042 0.198 0.004 0.407 0.14 0.628zM28.6 216.192v0l1.334 2.169c0.135 0.22 0.299 0.353 0.491 0.399 0.196 0.052 0.371 0.03 0.526-0.065 0.155-0.095 0.25-0.24 0.287-0.434 0.046-0.192 0.001-0.398-0.134-0.619v0l-1.334-2.169c-0.132-0.214-0.296-0.347-0.492-0.4-0.19-0.055-0.362-0.036-0.517 0.06-0.155 0.095-0.253 0.242-0.295 0.44-0.042 0.198 0.003 0.404 0.134 0.619zM26.433 209.305v0l1.334 2.17c0.132 0.214 0.293 0.349 0.483 0.404 0.196 0.052 0.371 0.03 0.526-0.065 0.155-0.095 0.253-0.242 0.295-0.44 0.036-0.195-0.012-0.399-0.143-0.613v0l-1.334-2.169c-0.135-0.22-0.298-0.358-0.488-0.414-0.196-0.052-0.371-0.03-0.526 0.065-0.155 0.095-0.253 0.242-0.296 0.44-0.036 0.195 0.013 0.402 0.149 0.622zM30.1 215.269v0l1.334 2.17c0.135 0.22 0.296 0.355 0.482 0.405 0.196 0.052 0.371 0.03 0.526-0.065 0.155-0.095 0.253-0.242 0.296-0.44 0.04-0.189-0.008-0.393-0.143-0.614v0l-1.334-2.169c-0.132-0.214-0.293-0.349-0.483-0.405-0.196-0.052-0.371-0.03-0.526 0.065-0.155 0.095-0.253 0.242-0.295 0.44-0.036 0.195 0.012 0.399 0.143 0.613zM28.841 209.88v0l3.167 5.151c0.132 0.214 0.293 0.349 0.483 0.405 0.196 0.052 0.371 0.03 0.526-0.065 0.155-0.095 0.253-0.242 0.295-0.44 0.036-0.195-0.012-0.399-0.143-0.613v0l-3.167-5.152c-0.135-0.22-0.298-0.358-0.488-0.414-0.192-0.046-0.366-0.021-0.521 0.074-0.155 0.095-0.255 0.239-0.301 0.431-0.036 0.195 0.013 0.402 0.149 0.623z" fill="#ffffff" data-fill-palette-color="primary"></path><path d="M30.918 225.511v0l3.695 4.787c0.154 0.199 0.331 0.314 0.531 0.345 0.195 0.035 0.367-0.005 0.516-0.12 0.144-0.111 0.223-0.265 0.239-0.463 0.021-0.202-0.045-0.402-0.199-0.601v0l-3.696-4.787c-0.158-0.205-0.337-0.322-0.537-0.353-0.19-0.029-0.358 0.011-0.501 0.122-0.149 0.115-0.234 0.269-0.254 0.461-0.021 0.202 0.048 0.405 0.206 0.609zM31.234 223.056v0l1.556 2.016c0.154 0.199 0.331 0.314 0.531 0.345 0.2 0.031 0.372-0.009 0.516-0.12 0.144-0.111 0.223-0.265 0.239-0.463 0.021-0.202-0.045-0.402-0.199-0.601v0l-1.557-2.016c-0.158-0.205-0.337-0.322-0.537-0.353-0.195-0.035-0.364 0.003-0.508 0.114-0.144 0.111-0.226 0.267-0.247 0.469-0.021 0.202 0.048 0.405 0.206 0.609zM35.511 228.598v0l1.557 2.016c0.158 0.205 0.335 0.32 0.531 0.345 0.2 0.031 0.372-0.009 0.516-0.12 0.144-0.111 0.223-0.265 0.239-0.463 0.025-0.196-0.041-0.396-0.199-0.601v0l-1.557-2.016c-0.154-0.199-0.331-0.314-0.531-0.344-0.195-0.035-0.364 0.003-0.507 0.113-0.144 0.111-0.226 0.267-0.248 0.469-0.021 0.202 0.045 0.402 0.199 0.601zM32.619 221.987v0l1.556 2.016c0.154 0.199 0.331 0.314 0.531 0.345 0.2 0.031 0.372-0.009 0.516-0.121 0.144-0.111 0.223-0.265 0.239-0.462 0.021-0.202-0.045-0.402-0.199-0.601v0l-1.556-2.016c-0.158-0.205-0.337-0.322-0.537-0.353-0.195-0.035-0.364 0.003-0.508 0.114-0.144 0.111-0.226 0.267-0.247 0.468-0.021 0.202 0.048 0.405 0.205 0.61zM36.897 227.529v0l1.556 2.016c0.158 0.205 0.335 0.32 0.531 0.345 0.2 0.031 0.372-0.009 0.516-0.121 0.144-0.111 0.223-0.265 0.239-0.462 0.025-0.196-0.041-0.396-0.199-0.601v0l-1.556-2.016c-0.154-0.199-0.331-0.314-0.531-0.345-0.195-0.035-0.364 0.003-0.508 0.114-0.144 0.111-0.226 0.267-0.247 0.469-0.021 0.202 0.045 0.402 0.199 0.601zM34.013 220.911v0l1.556 2.016c0.154 0.199 0.328 0.316 0.523 0.351 0.2 0.031 0.372-0.009 0.516-0.12 0.144-0.111 0.226-0.267 0.247-0.469 0.015-0.197-0.054-0.395-0.207-0.595v0l-1.556-2.016c-0.158-0.205-0.334-0.324-0.53-0.359-0.2-0.031-0.372 0.009-0.516 0.12-0.144 0.111-0.226 0.267-0.247 0.469-0.015 0.197 0.056 0.398 0.214 0.603zM38.291 226.453v0l1.556 2.016c0.158 0.205 0.332 0.322 0.523 0.351 0.2 0.031 0.372-0.009 0.516-0.12 0.144-0.111 0.226-0.267 0.247-0.469 0.02-0.192-0.049-0.39-0.207-0.594v0l-1.557-2.017c-0.154-0.199-0.328-0.316-0.522-0.351-0.2-0.031-0.372 0.009-0.516 0.121-0.144 0.111-0.226 0.267-0.248 0.468-0.015 0.197 0.054 0.395 0.208 0.595zM36.468 221.227v0l3.695 4.787c0.154 0.199 0.328 0.316 0.523 0.351 0.2 0.031 0.372-0.009 0.516-0.12 0.144-0.111 0.226-0.267 0.247-0.469 0.015-0.197-0.054-0.395-0.207-0.594v0l-3.695-4.788c-0.158-0.205-0.334-0.324-0.53-0.359-0.196-0.025-0.366 0.018-0.509 0.128-0.144 0.111-0.228 0.265-0.254 0.461-0.015 0.197 0.056 0.398 0.214 0.603z" fill="#ffffff" data-fill-palette-color="primary"></path><path d="M40.189 236.55v0l5.393 5.633c0.179 0.187 0.367 0.282 0.564 0.287 0.197 0.014 0.364-0.044 0.501-0.175 0.131-0.126 0.194-0.287 0.188-0.485 0.004-0.198-0.083-0.39-0.262-0.576v0l-5.392-5.633c-0.179-0.187-0.369-0.285-0.572-0.294-0.193-0.009-0.354 0.049-0.485 0.175-0.136 0.13-0.204 0.292-0.204 0.484 0.001 0.203 0.09 0.397 0.269 0.584zM40.243 234.076v0l1.761 1.839c0.174 0.182 0.362 0.277 0.565 0.287 0.202 0.009 0.369-0.049 0.5-0.174 0.131-0.126 0.194-0.287 0.189-0.486-0.001-0.203-0.088-0.395-0.262-0.576v0l-1.761-1.84c-0.179-0.187-0.369-0.285-0.572-0.294-0.197-0.014-0.362 0.042-0.493 0.167-0.131 0.126-0.197 0.29-0.196 0.493 0.001 0.203 0.09 0.397 0.269 0.584zM45.085 239.133v0l1.761 1.84c0.179 0.187 0.367 0.282 0.564 0.286 0.202 0.009 0.369-0.049 0.501-0.174 0.131-0.126 0.194-0.287 0.188-0.485 0.004-0.198-0.083-0.39-0.261-0.577v0l-1.761-1.839c-0.174-0.182-0.362-0.277-0.565-0.287-0.197-0.014-0.362 0.042-0.493 0.167-0.131 0.126-0.197 0.29-0.196 0.493 0.001 0.203 0.088 0.395 0.262 0.576zM41.508 232.865v0l1.761 1.84c0.174 0.182 0.362 0.277 0.564 0.287 0.202 0.009 0.369-0.049 0.501-0.175 0.131-0.126 0.194-0.287 0.188-0.485-0.001-0.203-0.088-0.395-0.261-0.576v0l-1.762-1.84c-0.179-0.187-0.369-0.285-0.571-0.294-0.197-0.014-0.362 0.042-0.493 0.167-0.131 0.126-0.197 0.29-0.196 0.492 0.001 0.203 0.09 0.397 0.269 0.584zM46.349 237.923v0l1.761 1.839c0.179 0.187 0.367 0.282 0.565 0.287 0.202 0.009 0.369-0.049 0.5-0.174 0.131-0.126 0.194-0.287 0.189-0.486 0.004-0.198-0.083-0.39-0.262-0.576v0l-1.761-1.84c-0.174-0.182-0.362-0.277-0.565-0.286-0.197-0.014-0.362 0.042-0.493 0.167-0.131 0.126-0.197 0.29-0.196 0.492 0.001 0.203 0.088 0.395 0.262 0.577zM43.99 232.912v0l5.392 5.633c0.179 0.187 0.364 0.285 0.557 0.294 0.202 0.009 0.369-0.049 0.501-0.175 0.131-0.126 0.197-0.29 0.196-0.492-0.001-0.193-0.09-0.383-0.27-0.569v0l-5.392-5.633c-0.179-0.187-0.367-0.287-0.564-0.302-0.198-0.004-0.362 0.056-0.493 0.182-0.131 0.126-0.199 0.287-0.204 0.485 0.006 0.198 0.098 0.39 0.277 0.577zM48.885 235.495v0l1.761 1.839c0.179 0.187 0.364 0.285 0.557 0.294 0.202 0.009 0.369-0.049 0.501-0.174 0.131-0.126 0.197-0.29 0.196-0.493-0.001-0.193-0.09-0.383-0.269-0.569v0l-1.761-1.84c-0.174-0.182-0.36-0.28-0.557-0.293-0.202-0.009-0.369 0.049-0.501 0.174-0.131 0.126-0.197 0.29-0.196 0.492 0.006 0.198 0.095 0.388 0.269 0.57zM50.15 234.284v0l1.761 1.84c0.179 0.187 0.364 0.285 0.557 0.294 0.202 0.009 0.369-0.049 0.5-0.175 0.131-0.126 0.197-0.29 0.196-0.492-0.001-0.193-0.09-0.383-0.269-0.569v0l-1.761-1.84c-0.174-0.182-0.36-0.28-0.557-0.294-0.202-0.009-0.369 0.049-0.501 0.175-0.131 0.126-0.197 0.29-0.196 0.492 0.006 0.198 0.095 0.388 0.27 0.569z" fill="#ffffff" data-fill-palette-color="primary"></path><path d="M65.904 249.636v0l2.09 1.455c0.206 0.144 0.408 0.203 0.604 0.178 0.2-0.031 0.352-0.121 0.456-0.27 0.104-0.149 0.135-0.323 0.095-0.522-0.045-0.193-0.17-0.361-0.377-0.504v0l-2.09-1.455c-0.212-0.148-0.416-0.209-0.613-0.184-0.195 0.035-0.344 0.127-0.447 0.276-0.104 0.149-0.138 0.321-0.104 0.516 0.045 0.193 0.173 0.363 0.386 0.51zM68.34 249.199v0l2.09 1.455c0.206 0.144 0.408 0.203 0.605 0.178 0.2-0.031 0.352-0.121 0.456-0.27 0.104-0.149 0.135-0.323 0.094-0.522-0.045-0.193-0.17-0.361-0.376-0.505v0l-2.091-1.454c-0.212-0.148-0.414-0.207-0.604-0.178-0.2 0.031-0.352 0.121-0.456 0.27-0.104 0.149-0.135 0.323-0.095 0.522 0.039 0.189 0.164 0.357 0.377 0.504zM70.776 248.762v0l2.091 1.455c0.206 0.144 0.408 0.203 0.604 0.177 0.2-0.031 0.352-0.121 0.456-0.27 0.104-0.149 0.135-0.323 0.095-0.521-0.045-0.193-0.17-0.361-0.377-0.505v0l-2.091-1.454c-0.206-0.144-0.408-0.203-0.604-0.178-0.2 0.031-0.352 0.121-0.456 0.27-0.104 0.149-0.135 0.323-0.094 0.522 0.045 0.193 0.17 0.361 0.376 0.504z" fill="#ffffff" data-fill-palette-color="primary"></path><path d="M74.236 262.956v0l5.34 2.838c0.222 0.118 0.431 0.15 0.625 0.096 0.192-0.048 0.332-0.156 0.421-0.323 0.085-0.16 0.094-0.334 0.027-0.519-0.064-0.192-0.207-0.347-0.429-0.466v0l-5.339-2.839c-0.228-0.121-0.44-0.155-0.636-0.1-0.186 0.052-0.321 0.158-0.406 0.318-0.089 0.167-0.102 0.341-0.041 0.524 0.064 0.192 0.21 0.349 0.438 0.47zM73.512 260.588v0l2.249 1.196c0.222 0.118 0.431 0.15 0.626 0.095 0.195-0.055 0.335-0.162 0.42-0.322 0.085-0.16 0.094-0.334 0.028-0.52-0.064-0.192-0.207-0.347-0.43-0.465v0l-2.248-1.196c-0.228-0.121-0.44-0.155-0.635-0.1-0.192 0.048-0.33 0.153-0.416 0.313-0.085 0.16-0.096 0.337-0.032 0.529 0.064 0.192 0.21 0.349 0.438 0.47zM79.694 263.875v0l2.249 1.196c0.228 0.121 0.437 0.153 0.626 0.095 0.195-0.055 0.335-0.162 0.42-0.322 0.085-0.16 0.094-0.334 0.027-0.52-0.058-0.189-0.201-0.344-0.429-0.466v0l-2.249-1.195c-0.222-0.118-0.431-0.15-0.625-0.096-0.192 0.048-0.33 0.153-0.416 0.314-0.085 0.16-0.096 0.337-0.032 0.529 0.064 0.192 0.207 0.347 0.429 0.465zM74.334 259.043v0l2.249 1.196c0.222 0.118 0.431 0.15 0.625 0.095 0.195-0.055 0.335-0.162 0.421-0.322 0.085-0.16 0.094-0.334 0.027-0.52-0.064-0.192-0.207-0.347-0.429-0.466v0l-2.249-1.195c-0.228-0.121-0.44-0.155-0.635-0.101-0.192 0.048-0.33 0.153-0.415 0.313-0.085 0.16-0.096 0.337-0.032 0.53 0.064 0.192 0.21 0.349 0.438 0.47zM80.516 262.33v0l2.248 1.195c0.228 0.121 0.437 0.153 0.626 0.096 0.195-0.055 0.335-0.162 0.421-0.323 0.085-0.16 0.094-0.334 0.027-0.52-0.058-0.189-0.201-0.344-0.429-0.465v0l-2.249-1.196c-0.222-0.118-0.431-0.15-0.626-0.095-0.192 0.048-0.33 0.153-0.415 0.313-0.085 0.16-0.096 0.337-0.032 0.529 0.064 0.192 0.207 0.347 0.429 0.466zM75.16 257.488v0l2.249 1.196c0.222 0.118 0.429 0.153 0.621 0.104 0.195-0.055 0.335-0.162 0.421-0.322 0.085-0.16 0.096-0.337 0.032-0.529-0.067-0.186-0.212-0.338-0.434-0.456v0l-2.249-1.196c-0.228-0.121-0.438-0.158-0.63-0.109-0.195 0.055-0.335 0.162-0.421 0.322-0.085 0.16-0.096 0.337-0.032 0.529 0.067 0.186 0.215 0.34 0.443 0.461zM81.342 260.775v0l2.249 1.196c0.228 0.121 0.435 0.156 0.621 0.104 0.195-0.055 0.335-0.162 0.421-0.322 0.085-0.16 0.096-0.337 0.032-0.529-0.061-0.183-0.206-0.335-0.434-0.456v0l-2.249-1.196c-0.222-0.118-0.429-0.153-0.621-0.105-0.195 0.055-0.335 0.162-0.421 0.323-0.085 0.16-0.096 0.337-0.032 0.529 0.067 0.186 0.212 0.338 0.434 0.456zM77.528 256.765v0l5.339 2.838c0.222 0.118 0.429 0.153 0.621 0.105 0.195-0.055 0.335-0.162 0.421-0.322 0.085-0.16 0.096-0.337 0.032-0.529-0.067-0.186-0.212-0.338-0.434-0.457v0l-5.34-2.839c-0.228-0.121-0.438-0.158-0.63-0.109-0.189 0.058-0.326 0.167-0.411 0.327-0.085 0.16-0.099 0.335-0.042 0.524 0.067 0.186 0.215 0.34 0.444 0.461z" fill="#ffffff" data-fill-palette-color="primary"></path><path d="M87.164 269.222v0l5.579 2.331c0.232 0.097 0.443 0.109 0.633 0.037 0.187-0.066 0.316-0.186 0.388-0.36 0.07-0.168 0.063-0.341-0.021-0.52-0.082-0.186-0.238-0.327-0.47-0.424v0l-5.58-2.331c-0.239-0.1-0.452-0.113-0.642-0.041-0.18 0.069-0.305 0.187-0.375 0.354-0.073 0.174-0.07 0.349 0.008 0.526 0.082 0.186 0.242 0.328 0.48 0.428zM89.453 268.282v0l2.35 0.981c0.232 0.097 0.443 0.109 0.632 0.037 0.189-0.072 0.319-0.192 0.389-0.36 0.07-0.168 0.063-0.341-0.021-0.52-0.082-0.186-0.238-0.327-0.47-0.423v0l-2.35-0.982c-0.239-0.1-0.449-0.112-0.632-0.037-0.187 0.066-0.315 0.183-0.385 0.35-0.07 0.168-0.064 0.344 0.017 0.53 0.075 0.183 0.232 0.324 0.47 0.424zM90.128 266.667v0l2.35 0.981c0.232 0.097 0.443 0.109 0.632 0.037 0.189-0.072 0.319-0.192 0.389-0.36 0.07-0.168 0.063-0.341-0.021-0.52-0.082-0.186-0.238-0.327-0.471-0.423v0l-2.349-0.982c-0.239-0.1-0.449-0.112-0.632-0.037-0.187 0.066-0.315 0.183-0.385 0.35-0.07 0.168-0.064 0.344 0.017 0.53 0.075 0.183 0.232 0.324 0.47 0.424zM90.807 265.042v0l2.35 0.982c0.232 0.097 0.441 0.113 0.628 0.046 0.189-0.072 0.319-0.192 0.389-0.36 0.07-0.168 0.064-0.344-0.017-0.529-0.084-0.179-0.242-0.317-0.475-0.414v0l-2.35-0.982c-0.239-0.1-0.448-0.115-0.628-0.047-0.189 0.072-0.319 0.192-0.389 0.36-0.07 0.168-0.064 0.344 0.018 0.53 0.078 0.176 0.236 0.314 0.474 0.414zM91.482 263.427v0l2.35 0.982c0.232 0.097 0.441 0.113 0.628 0.046 0.189-0.072 0.319-0.192 0.389-0.36 0.07-0.168 0.064-0.344-0.017-0.529-0.084-0.179-0.242-0.317-0.475-0.414v0l-2.35-0.982c-0.239-0.1-0.448-0.115-0.628-0.047-0.189 0.072-0.319 0.192-0.389 0.36-0.07 0.168-0.064 0.344 0.017 0.53 0.078 0.176 0.236 0.314 0.475 0.414zM90.542 261.137v0l3.965 1.657c0.232 0.097 0.441 0.113 0.628 0.047 0.189-0.072 0.319-0.192 0.389-0.36 0.07-0.168 0.064-0.344-0.018-0.53-0.084-0.179-0.242-0.317-0.474-0.414v0l-3.965-1.657c-0.239-0.1-0.451-0.117-0.638-0.051-0.183 0.075-0.309 0.196-0.379 0.364-0.07 0.168-0.068 0.343 0.008 0.526 0.084 0.179 0.246 0.318 0.484 0.418z" fill="#ffffff" data-fill-palette-color="primary"></path><path d="M100.819 274.017v0l7.502 2.126c0.249 0.07 0.459 0.058 0.632-0.039 0.177-0.088 0.292-0.222 0.343-0.404 0.05-0.175 0.022-0.346-0.083-0.514-0.096-0.173-0.269-0.294-0.518-0.364v0l-7.502-2.126c-0.249-0.07-0.463-0.058-0.642 0.036-0.171 0.09-0.281 0.222-0.33 0.396-0.051 0.182-0.028 0.355 0.07 0.521 0.103 0.174 0.279 0.297 0.528 0.368zM99.612 271.856v0l2.45 0.694c0.242 0.069 0.453 0.056 0.632-0.039 0.179-0.094 0.294-0.229 0.343-0.404 0.05-0.175 0.022-0.346-0.083-0.514-0.103-0.174-0.276-0.296-0.517-0.364v0l-2.451-0.694c-0.249-0.07-0.463-0.058-0.642 0.036-0.177 0.088-0.291 0.219-0.34 0.393-0.05 0.175-0.023 0.349 0.08 0.524 0.103 0.174 0.279 0.297 0.528 0.368zM106.348 273.764v0l2.45 0.695c0.249 0.07 0.459 0.058 0.632-0.039 0.179-0.094 0.294-0.229 0.343-0.404 0.05-0.175 0.022-0.346-0.083-0.514-0.096-0.173-0.269-0.294-0.517-0.364v0l-2.451-0.695c-0.242-0.069-0.453-0.056-0.632 0.039-0.177 0.088-0.291 0.219-0.34 0.394-0.05 0.175-0.023 0.349 0.08 0.524 0.103 0.174 0.276 0.296 0.518 0.364zM100.089 270.172v0l2.451 0.694c0.242 0.069 0.453 0.056 0.631-0.039 0.179-0.094 0.294-0.229 0.344-0.404 0.05-0.175 0.022-0.346-0.084-0.514-0.103-0.174-0.276-0.296-0.517-0.364v0l-2.45-0.694c-0.249-0.07-0.463-0.058-0.642 0.036-0.177 0.088-0.291 0.219-0.341 0.393-0.05 0.175-0.023 0.349 0.08 0.524 0.103 0.174 0.279 0.297 0.528 0.368zM106.825 272.08v0l2.45 0.695c0.249 0.07 0.459 0.058 0.632-0.039 0.179-0.094 0.294-0.229 0.344-0.404 0.05-0.175 0.022-0.346-0.084-0.514-0.096-0.173-0.269-0.294-0.517-0.364v0l-2.451-0.695c-0.242-0.069-0.453-0.056-0.631 0.039-0.177 0.088-0.291 0.219-0.341 0.394-0.05 0.175-0.023 0.349 0.081 0.524 0.103 0.174 0.276 0.296 0.517 0.364zM102.253 268.955v0l7.503 2.126c0.249 0.07 0.458 0.061 0.629-0.029 0.179-0.094 0.294-0.229 0.343-0.404 0.05-0.175 0.023-0.349-0.081-0.524-0.098-0.166-0.272-0.284-0.52-0.354v0l-7.502-2.126c-0.249-0.07-0.462-0.062-0.639 0.026-0.173 0.096-0.284 0.232-0.334 0.406-0.05 0.175-0.026 0.348 0.071 0.521 0.105 0.168 0.282 0.287 0.53 0.358zM107.782 268.702v0l2.451 0.695c0.249 0.07 0.458 0.061 0.629-0.029 0.179-0.094 0.294-0.229 0.343-0.404 0.05-0.175 0.023-0.349-0.08-0.524-0.098-0.166-0.272-0.284-0.521-0.354v0l-2.45-0.695c-0.242-0.069-0.452-0.059-0.629 0.029-0.179 0.094-0.294 0.229-0.343 0.404-0.05 0.175-0.023 0.349 0.08 0.524 0.105 0.168 0.278 0.286 0.52 0.354zM108.26 267.018v0l2.45 0.695c0.249 0.07 0.458 0.061 0.629-0.029 0.179-0.094 0.294-0.229 0.343-0.404 0.05-0.175 0.023-0.349-0.08-0.524-0.098-0.166-0.272-0.284-0.521-0.354v0l-2.45-0.695c-0.242-0.069-0.452-0.059-0.629 0.029-0.179 0.094-0.294 0.229-0.343 0.404-0.05 0.175-0.023 0.349 0.08 0.524 0.105 0.168 0.278 0.286 0.521 0.354z" fill="#ffffff" data-fill-palette-color="primary"></path><path d="M127.39 279.109v0l2.541 0.163c0.251 0.016 0.454-0.041 0.61-0.172 0.155-0.123 0.238-0.279 0.25-0.467 0.012-0.181-0.052-0.343-0.189-0.484-0.138-0.149-0.332-0.231-0.583-0.248v0l-2.542-0.162c-0.258-0.016-0.465 0.04-0.62 0.171-0.155 0.123-0.238 0.275-0.249 0.456-0.012 0.188 0.051 0.353 0.188 0.496 0.138 0.149 0.335 0.231 0.594 0.247zM134.377 279.555v0l2.541 0.162c0.258 0.016 0.461-0.041 0.61-0.171 0.155-0.123 0.238-0.279 0.25-0.467 0.012-0.181-0.052-0.343-0.189-0.485-0.131-0.148-0.325-0.231-0.583-0.247v0l-2.542-0.162c-0.251-0.016-0.454 0.041-0.609 0.171-0.155 0.123-0.238 0.275-0.25 0.457-0.012 0.188 0.051 0.353 0.189 0.495 0.138 0.149 0.332 0.231 0.583 0.247zM127.501 277.363v0l2.542 0.162c0.251 0.016 0.454-0.041 0.609-0.171 0.155-0.13 0.239-0.286 0.251-0.467 0.012-0.181-0.052-0.343-0.19-0.485-0.138-0.149-0.332-0.231-0.583-0.247v0l-2.541-0.162c-0.258-0.016-0.465 0.04-0.62 0.17-0.155 0.123-0.238 0.275-0.25 0.457-0.012 0.181 0.051 0.346 0.189 0.495 0.138 0.149 0.335 0.231 0.593 0.248zM132.741 277.697v0l2.542 0.162c0.251 0.016 0.454-0.041 0.61-0.171 0.155-0.13 0.239-0.286 0.25-0.467 0.012-0.181-0.052-0.343-0.19-0.485-0.138-0.149-0.332-0.231-0.583-0.247v0l-2.541-0.162c-0.251-0.016-0.454 0.041-0.61 0.171-0.155 0.123-0.238 0.275-0.249 0.457-0.012 0.181 0.051 0.346 0.189 0.495 0.138 0.149 0.332 0.231 0.582 0.247zM127.613 275.616v0l6.035 0.385c0.251 0.016 0.454-0.041 0.609-0.171 0.155-0.13 0.239-0.286 0.251-0.467 0.012-0.181-0.052-0.343-0.19-0.485-0.138-0.149-0.332-0.231-0.583-0.247v0l-6.035-0.385c-0.258-0.016-0.465 0.04-0.62 0.17-0.155 0.123-0.238 0.275-0.25 0.457-0.012 0.181 0.051 0.346 0.189 0.495 0.138 0.149 0.335 0.231 0.594 0.248zM127.725 273.859v0l7.782 0.496c0.251 0.016 0.454-0.038 0.608-0.161 0.155-0.13 0.239-0.286 0.251-0.467 0.012-0.181-0.051-0.346-0.189-0.495-0.138-0.142-0.332-0.221-0.584-0.237v0l-7.782-0.496c-0.258-0.016-0.464 0.037-0.619 0.16-0.155 0.13-0.239 0.286-0.25 0.467-0.012 0.181 0.051 0.346 0.189 0.495 0.138 0.142 0.336 0.221 0.594 0.238zM127.836 272.112v0l2.542 0.162c0.251 0.016 0.454-0.038 0.609-0.161 0.155-0.13 0.239-0.286 0.25-0.467 0.012-0.181-0.051-0.346-0.189-0.495-0.138-0.142-0.332-0.221-0.583-0.237v0l-2.542-0.162c-0.258-0.016-0.464 0.037-0.619 0.16-0.155 0.13-0.239 0.286-0.251 0.467-0.012 0.181 0.051 0.346 0.189 0.496 0.138 0.142 0.336 0.221 0.594 0.237zM134.823 272.558v0l2.542 0.162c0.258 0.016 0.461-0.037 0.609-0.161 0.155-0.13 0.239-0.286 0.25-0.467 0.012-0.181-0.051-0.346-0.189-0.495-0.131-0.141-0.326-0.22-0.584-0.237v0l-2.541-0.162c-0.251-0.016-0.454 0.038-0.609 0.161-0.155 0.13-0.239 0.286-0.25 0.467-0.012 0.181 0.051 0.346 0.189 0.495 0.138 0.142 0.332 0.221 0.583 0.237zM127.948 270.365v0l2.541 0.162c0.251 0.016 0.454-0.038 0.609-0.16 0.155-0.13 0.239-0.286 0.25-0.467 0.012-0.181-0.051-0.346-0.189-0.496-0.138-0.142-0.332-0.221-0.583-0.236v0l-2.542-0.162c-0.258-0.016-0.464 0.037-0.619 0.16-0.155 0.13-0.239 0.286-0.25 0.467-0.012 0.181 0.051 0.346 0.189 0.495 0.138 0.142 0.336 0.221 0.594 0.237zM134.934 270.811v0l2.542 0.162c0.258 0.016 0.461-0.037 0.609-0.161 0.155-0.13 0.239-0.286 0.25-0.467 0.012-0.181-0.051-0.346-0.189-0.495-0.131-0.141-0.326-0.22-0.583-0.237v0l-2.542-0.162c-0.251-0.016-0.454 0.038-0.609 0.161-0.155 0.13-0.239 0.286-0.25 0.467-0.012 0.181 0.051 0.346 0.189 0.495 0.138 0.142 0.332 0.221 0.583 0.237zM128.059 268.619v0l7.782 0.496c0.251 0.016 0.454-0.038 0.609-0.161 0.155-0.13 0.239-0.286 0.25-0.467 0.012-0.181-0.051-0.346-0.189-0.495-0.138-0.142-0.332-0.221-0.583-0.237v0l-7.782-0.496c-0.258-0.016-0.464 0.037-0.62 0.16-0.155 0.13-0.239 0.286-0.25 0.467-0.012 0.181 0.051 0.346 0.189 0.495 0.138 0.142 0.336 0.221 0.594 0.238z" fill="#ffffff" data-fill-palette-color="primary"></path><path d="M143.549 279.546v0l6.042-0.257c0.251-0.011 0.447-0.089 0.588-0.234 0.141-0.139 0.207-0.303 0.199-0.491-0.008-0.182-0.088-0.335-0.24-0.462-0.153-0.133-0.354-0.195-0.606-0.184v0l-6.041 0.256c-0.258 0.011-0.458 0.089-0.599 0.235-0.134 0.139-0.197 0.299-0.189 0.48 0.008 0.188 0.085 0.346 0.229 0.473 0.153 0.133 0.358 0.195 0.617 0.184zM141.726 277.871v0l2.544-0.108c0.251-0.011 0.447-0.089 0.588-0.235 0.141-0.146 0.207-0.309 0.2-0.491-0.008-0.182-0.088-0.335-0.24-0.462-0.153-0.133-0.354-0.195-0.606-0.184v0l-2.544 0.108c-0.258 0.011-0.458 0.089-0.599 0.235-0.141 0.139-0.208 0.299-0.2 0.481 0.008 0.182 0.088 0.339 0.241 0.472 0.153 0.133 0.358 0.195 0.616 0.184zM141.652 276.122v0l9.539-0.404c0.258-0.011 0.454-0.089 0.588-0.235 0.141-0.146 0.207-0.309 0.2-0.491-0.008-0.182-0.088-0.335-0.24-0.462-0.146-0.134-0.347-0.195-0.606-0.184v0l-9.539 0.404c-0.258 0.011-0.458 0.089-0.599 0.236-0.141 0.139-0.208 0.299-0.2 0.48 0.008 0.182 0.088 0.339 0.24 0.473 0.153 0.133 0.358 0.195 0.617 0.183zM141.577 274.363v0l2.545-0.108c0.251-0.011 0.447-0.085 0.588-0.224 0.141-0.146 0.207-0.309 0.2-0.491-0.008-0.182-0.088-0.339-0.241-0.472-0.152-0.126-0.354-0.184-0.605-0.174v0l-2.545 0.108c-0.258 0.011-0.458 0.086-0.599 0.225-0.141 0.146-0.207 0.309-0.199 0.491 0.008 0.182 0.088 0.339 0.24 0.472 0.152 0.126 0.357 0.184 0.616 0.173zM148.572 274.066v0l2.544-0.107c0.258-0.011 0.454-0.086 0.589-0.225 0.141-0.146 0.207-0.309 0.199-0.491-0.008-0.182-0.088-0.339-0.24-0.472-0.145-0.127-0.347-0.185-0.605-0.174v0l-2.545 0.108c-0.251 0.011-0.447 0.085-0.588 0.224-0.141 0.146-0.207 0.309-0.2 0.491 0.008 0.182 0.088 0.339 0.241 0.473 0.152 0.126 0.354 0.184 0.605 0.173zM143.252 272.54v0l6.042-0.256c0.251-0.011 0.447-0.085 0.588-0.224 0.141-0.146 0.207-0.309 0.2-0.491-0.008-0.182-0.088-0.339-0.241-0.473-0.152-0.126-0.354-0.184-0.605-0.173v0l-6.042 0.256c-0.258 0.011-0.458 0.086-0.599 0.225-0.134 0.146-0.197 0.309-0.189 0.49 0.008 0.182 0.084 0.339 0.23 0.473 0.152 0.126 0.357 0.184 0.616 0.173z" fill="#ffffff" data-fill-palette-color="primary"></path><path d="M161.376 277.824v0l4.25-0.635c0.256-0.038 0.442-0.137 0.56-0.296 0.125-0.153 0.174-0.323 0.146-0.509-0.027-0.18-0.123-0.324-0.287-0.434-0.159-0.118-0.366-0.157-0.622-0.119v0l-4.25 0.635c-0.249 0.037-0.435 0.136-0.56 0.296-0.125 0.153-0.175 0.319-0.147 0.499 0.028 0.187 0.124 0.335 0.289 0.444 0.166 0.116 0.373 0.156 0.621 0.119zM159.386 276.352v0l2.519-0.377c0.249-0.037 0.435-0.136 0.56-0.295 0.124-0.16 0.173-0.33 0.146-0.51-0.027-0.18-0.123-0.324-0.287-0.433-0.166-0.116-0.373-0.156-0.622-0.119v0l-2.519 0.376c-0.256 0.038-0.442 0.137-0.56 0.296-0.125 0.153-0.175 0.319-0.147 0.499 0.027 0.18 0.123 0.328 0.289 0.444 0.159 0.118 0.366 0.157 0.621 0.119zM159.127 274.621v0l2.519-0.377c0.249-0.037 0.435-0.136 0.56-0.295 0.124-0.16 0.173-0.33 0.146-0.51-0.027-0.18-0.123-0.324-0.287-0.433-0.166-0.116-0.373-0.156-0.622-0.119v0l-2.519 0.376c-0.256 0.038-0.442 0.137-0.56 0.296-0.125 0.153-0.175 0.319-0.147 0.499 0.027 0.18 0.123 0.328 0.289 0.444 0.159 0.118 0.366 0.157 0.621 0.119zM158.867 272.88v0l2.519-0.377c0.249-0.037 0.436-0.132 0.561-0.285 0.124-0.16 0.173-0.33 0.146-0.51-0.027-0.18-0.123-0.328-0.289-0.444-0.165-0.11-0.372-0.146-0.62-0.108v0l-2.519 0.376c-0.256 0.038-0.443 0.133-0.561 0.286-0.124 0.16-0.173 0.33-0.146 0.509 0.027 0.18 0.123 0.328 0.289 0.444 0.158 0.111 0.365 0.147 0.62 0.109zM155.146 271.667v0l9.443-1.413c0.256-0.038 0.443-0.133 0.561-0.285 0.124-0.16 0.173-0.33 0.147-0.51-0.027-0.18-0.123-0.328-0.289-0.444-0.158-0.111-0.365-0.147-0.621-0.108v0l-9.443 1.412c-0.256 0.038-0.446 0.134-0.571 0.287-0.124 0.16-0.173 0.33-0.147 0.509 0.027 0.18 0.123 0.328 0.289 0.445 0.165 0.11 0.375 0.145 0.631 0.107zM158.349 269.418v0l2.519-0.377c0.249-0.037 0.436-0.132 0.561-0.285 0.124-0.16 0.173-0.33 0.147-0.51-0.027-0.18-0.123-0.328-0.289-0.444-0.165-0.11-0.372-0.146-0.621-0.109v0l-2.519 0.377c-0.256 0.038-0.443 0.133-0.561 0.286-0.124 0.16-0.173 0.33-0.146 0.509 0.027 0.18 0.123 0.328 0.289 0.444 0.158 0.111 0.365 0.147 0.62 0.109z" fill="#ffffff" data-fill-palette-color="primary"></path><path d="M170.378 276.064v0l2.465-0.641c0.243-0.063 0.419-0.181 0.525-0.354 0.109-0.165 0.139-0.339 0.092-0.522-0.046-0.176-0.156-0.309-0.332-0.401-0.177-0.098-0.388-0.116-0.631-0.052v0l-2.465 0.642c-0.25 0.065-0.429 0.184-0.535 0.356-0.109 0.165-0.14 0.336-0.094 0.512 0.048 0.183 0.159 0.32 0.334 0.411 0.177 0.098 0.391 0.115 0.641 0.049zM169.937 274.371v0l2.465-0.642c0.243-0.063 0.419-0.181 0.525-0.354 0.107-0.172 0.137-0.346 0.092-0.522-0.046-0.176-0.156-0.309-0.332-0.401-0.177-0.098-0.388-0.116-0.631-0.052v0l-2.465 0.642c-0.25 0.065-0.429 0.184-0.535 0.356-0.109 0.165-0.14 0.336-0.094 0.512 0.046 0.176 0.157 0.313 0.334 0.411 0.177 0.098 0.391 0.115 0.641 0.05zM169.496 272.677v0l2.465-0.642c0.243-0.063 0.419-0.181 0.525-0.353 0.107-0.172 0.137-0.346 0.092-0.522-0.046-0.176-0.156-0.309-0.332-0.401-0.177-0.098-0.388-0.116-0.631-0.053v0l-2.465 0.642c-0.25 0.065-0.429 0.184-0.535 0.356-0.109 0.165-0.14 0.336-0.094 0.512 0.046 0.176 0.157 0.313 0.334 0.411 0.177 0.098 0.391 0.115 0.641 0.05zM169.052 270.973v0l2.465-0.642c0.243-0.063 0.419-0.178 0.528-0.343 0.107-0.172 0.137-0.346 0.091-0.522-0.046-0.176-0.157-0.313-0.334-0.411-0.175-0.091-0.385-0.106-0.628-0.043v0l-2.465 0.642c-0.25 0.065-0.43 0.18-0.538 0.346-0.107 0.172-0.137 0.346-0.092 0.522 0.046 0.176 0.157 0.313 0.335 0.411 0.175 0.091 0.388 0.105 0.638 0.04zM175.828 269.209v0l2.464-0.642c0.25-0.065 0.426-0.18 0.528-0.344 0.107-0.172 0.137-0.346 0.092-0.522-0.046-0.176-0.157-0.313-0.335-0.411-0.169-0.093-0.378-0.107-0.628-0.042v0l-2.465 0.642c-0.243 0.063-0.419 0.178-0.528 0.343-0.107 0.172-0.137 0.346-0.091 0.522 0.046 0.176 0.157 0.313 0.334 0.411 0.175 0.091 0.385 0.106 0.629 0.043zM168.611 269.279v0l7.546-1.965c0.243-0.063 0.419-0.178 0.528-0.343 0.107-0.172 0.137-0.346 0.092-0.522-0.046-0.176-0.157-0.313-0.335-0.411-0.175-0.091-0.385-0.106-0.628-0.043v0l-7.546 1.965c-0.25 0.065-0.43 0.18-0.538 0.346-0.107 0.172-0.137 0.346-0.092 0.522 0.046 0.176 0.157 0.313 0.335 0.411 0.175 0.091 0.388 0.105 0.638 0.04z" fill="#ffffff" data-fill-palette-color="primary"></path><path d="M185.862 271.417v0l5.657-2.136c0.235-0.089 0.397-0.225 0.485-0.407 0.09-0.176 0.102-0.352 0.036-0.529-0.064-0.17-0.188-0.291-0.373-0.363-0.187-0.079-0.398-0.074-0.633 0.014v0l-5.657 2.137c-0.242 0.091-0.407 0.228-0.495 0.411-0.084 0.174-0.094 0.345-0.029 0.515 0.067 0.176 0.189 0.302 0.366 0.377 0.187 0.079 0.401 0.073 0.643-0.019zM183.606 270.398v0l2.383-0.899c0.235-0.089 0.397-0.225 0.484-0.407 0.088-0.183 0.1-0.359 0.036-0.529-0.064-0.17-0.188-0.291-0.373-0.364-0.187-0.079-0.398-0.074-0.633 0.015v0l-2.382 0.9c-0.242 0.091-0.407 0.228-0.495 0.411-0.09 0.176-0.103 0.349-0.039 0.519 0.064 0.17 0.19 0.294 0.376 0.373 0.187 0.079 0.401 0.073 0.643-0.019zM190.156 267.925v0l2.382-0.9c0.242-0.091 0.403-0.227 0.485-0.407 0.088-0.183 0.1-0.359 0.036-0.529-0.064-0.17-0.188-0.291-0.373-0.363-0.18-0.081-0.391-0.076-0.633 0.015v0l-2.382 0.899c-0.235 0.089-0.397 0.225-0.485 0.408-0.09 0.176-0.103 0.349-0.04 0.519 0.064 0.17 0.19 0.294 0.377 0.373 0.187 0.079 0.398 0.074 0.633-0.015zM182.988 268.761v0l2.382-0.9c0.235-0.089 0.397-0.225 0.485-0.407 0.088-0.183 0.1-0.359 0.036-0.529-0.064-0.17-0.188-0.291-0.373-0.363-0.187-0.079-0.398-0.074-0.633 0.015v0l-2.383 0.9c-0.242 0.091-0.407 0.228-0.494 0.41-0.09 0.176-0.103 0.349-0.039 0.519 0.064 0.17 0.19 0.294 0.376 0.374 0.187 0.079 0.401 0.073 0.643-0.019zM189.537 266.288v0l2.383-0.9c0.242-0.091 0.403-0.227 0.485-0.407 0.088-0.183 0.1-0.359 0.035-0.529-0.064-0.17-0.188-0.291-0.372-0.364-0.18-0.081-0.391-0.076-0.633 0.015v0l-2.383 0.9c-0.235 0.089-0.397 0.225-0.485 0.407-0.09 0.176-0.103 0.349-0.039 0.519 0.064 0.17 0.19 0.294 0.376 0.373 0.187 0.079 0.398 0.074 0.633-0.014zM182.365 267.114v0l2.383-0.9c0.235-0.089 0.398-0.221 0.489-0.397 0.088-0.183 0.1-0.359 0.035-0.529-0.064-0.17-0.19-0.294-0.376-0.373-0.184-0.072-0.394-0.064-0.629 0.024v0l-2.383 0.9c-0.242 0.091-0.408 0.225-0.498 0.401-0.088 0.183-0.1 0.359-0.036 0.529 0.064 0.17 0.19 0.294 0.376 0.373 0.184 0.072 0.397 0.063 0.639-0.028zM188.915 264.64v0l2.383-0.899c0.242-0.091 0.405-0.224 0.488-0.398 0.088-0.183 0.1-0.359 0.036-0.529-0.064-0.17-0.19-0.294-0.376-0.373-0.178-0.075-0.387-0.067-0.63 0.025v0l-2.382 0.9c-0.235 0.089-0.398 0.221-0.489 0.397-0.088 0.183-0.1 0.359-0.035 0.529 0.064 0.17 0.19 0.294 0.376 0.373 0.184 0.072 0.394 0.064 0.629-0.025zM183.385 264.858v0l5.657-2.137c0.235-0.089 0.398-0.221 0.488-0.397 0.088-0.183 0.1-0.359 0.036-0.529-0.064-0.17-0.19-0.294-0.376-0.373-0.184-0.072-0.394-0.064-0.629 0.025v0l-5.658 2.136c-0.242 0.091-0.408 0.225-0.498 0.401-0.081 0.18-0.09 0.355-0.026 0.526 0.064 0.17 0.186 0.296 0.366 0.377 0.184 0.072 0.397 0.063 0.639-0.029z" fill="#ffffff" data-fill-palette-color="primary"></path><path d="M211.718 258.755v0l5.081-3.28c0.211-0.136 0.341-0.303 0.388-0.5 0.051-0.191 0.026-0.366-0.076-0.525-0.099-0.153-0.245-0.245-0.441-0.277-0.199-0.038-0.404 0.011-0.615 0.148v0l-5.081 3.28c-0.217 0.14-0.35 0.309-0.397 0.506-0.045 0.187-0.019 0.357 0.08 0.51 0.102 0.159 0.248 0.256 0.437 0.291 0.199 0.038 0.407-0.013 0.625-0.153zM209.299 258.233v0l2.139-1.381c0.211-0.136 0.341-0.303 0.389-0.5 0.047-0.197 0.022-0.372-0.077-0.524-0.099-0.153-0.245-0.245-0.441-0.277-0.199-0.038-0.404 0.011-0.615 0.148v0l-2.14 1.381c-0.217 0.14-0.35 0.309-0.397 0.506-0.051 0.191-0.028 0.363 0.071 0.515 0.099 0.153 0.247 0.248 0.446 0.286 0.199 0.038 0.407-0.013 0.625-0.154zM215.181 254.436v0l2.139-1.381c0.217-0.14 0.347-0.307 0.389-0.5 0.047-0.197 0.022-0.372-0.077-0.525-0.099-0.153-0.245-0.245-0.441-0.276-0.193-0.042-0.398 0.008-0.615 0.147v0l-2.14 1.382c-0.211 0.136-0.341 0.303-0.388 0.5-0.051 0.191-0.028 0.363 0.071 0.515 0.099 0.153 0.247 0.248 0.446 0.286 0.199 0.038 0.404-0.011 0.616-0.148zM208.349 256.763v0l2.14-1.381c0.211-0.136 0.341-0.303 0.388-0.501 0.047-0.197 0.022-0.372-0.076-0.524-0.099-0.153-0.245-0.245-0.441-0.277-0.199-0.038-0.404 0.011-0.616 0.148v0l-2.139 1.381c-0.217 0.14-0.35 0.309-0.397 0.506-0.051 0.191-0.028 0.363 0.071 0.516 0.099 0.153 0.247 0.248 0.446 0.285 0.199 0.038 0.407-0.013 0.624-0.153zM214.231 252.966v0l2.14-1.382c0.217-0.14 0.347-0.307 0.388-0.5 0.047-0.197 0.022-0.372-0.076-0.524-0.099-0.153-0.245-0.245-0.441-0.277-0.193-0.042-0.398 0.008-0.616 0.148v0l-2.139 1.381c-0.211 0.136-0.341 0.303-0.388 0.5-0.051 0.191-0.028 0.363 0.07 0.516 0.099 0.153 0.247 0.248 0.447 0.286 0.199 0.038 0.404-0.011 0.615-0.148zM207.394 255.284v0l2.14-1.382c0.211-0.136 0.343-0.3 0.394-0.491 0.047-0.197 0.022-0.372-0.077-0.524-0.099-0.153-0.247-0.248-0.446-0.286-0.195-0.032-0.399 0.02-0.61 0.157v0l-2.14 1.381c-0.217 0.14-0.351 0.306-0.402 0.497-0.047 0.197-0.022 0.372 0.076 0.524 0.099 0.153 0.247 0.248 0.447 0.286 0.195 0.032 0.402-0.022 0.618-0.162zM211.806 252.436v0l3.61-2.331c0.217-0.14 0.348-0.304 0.394-0.491 0.047-0.197 0.022-0.372-0.077-0.525-0.099-0.153-0.247-0.248-0.446-0.285-0.189-0.036-0.393 0.017-0.61 0.156v0l-3.61 2.331c-0.211 0.136-0.343 0.3-0.394 0.491-0.047 0.197-0.022 0.372 0.077 0.525 0.099 0.153 0.247 0.248 0.446 0.285 0.195 0.032 0.399-0.02 0.61-0.156zM206.445 253.813v0l2.14-1.381c0.211-0.136 0.343-0.3 0.394-0.491 0.047-0.197 0.022-0.372-0.077-0.525-0.099-0.153-0.247-0.248-0.446-0.286-0.195-0.032-0.399 0.02-0.61 0.157v0l-2.14 1.381c-0.217 0.14-0.351 0.306-0.403 0.497-0.047 0.197-0.022 0.372 0.077 0.525 0.099 0.153 0.247 0.248 0.446 0.286 0.195 0.032 0.402-0.022 0.619-0.163zM205.496 252.343v0l2.14-1.382c0.211-0.136 0.343-0.3 0.393-0.491 0.047-0.197 0.022-0.372-0.076-0.524-0.099-0.153-0.247-0.248-0.447-0.286-0.195-0.032-0.399 0.02-0.609 0.157v0l-2.14 1.381c-0.217 0.14-0.351 0.306-0.403 0.497-0.047 0.197-0.022 0.372 0.077 0.524 0.099 0.153 0.247 0.248 0.446 0.286 0.195 0.032 0.402-0.022 0.619-0.162zM211.378 248.545v0l2.14-1.381c0.217-0.14 0.348-0.304 0.393-0.491 0.047-0.197 0.022-0.372-0.076-0.525-0.099-0.153-0.247-0.248-0.447-0.285-0.189-0.036-0.393 0.017-0.609 0.156v0l-2.14 1.382c-0.211 0.136-0.343 0.3-0.394 0.491-0.047 0.197-0.022 0.372 0.077 0.525 0.099 0.153 0.247 0.248 0.446 0.285 0.195 0.032 0.399-0.02 0.61-0.157zM206.017 249.923v0l5.081-3.28c0.211-0.136 0.343-0.3 0.394-0.491 0.047-0.197 0.022-0.372-0.077-0.525-0.099-0.153-0.247-0.248-0.446-0.285-0.195-0.032-0.399 0.02-0.61 0.156v0l-5.081 3.28c-0.217 0.14-0.351 0.306-0.403 0.497-0.042 0.193-0.013 0.366 0.086 0.519 0.099 0.153 0.244 0.25 0.437 0.291 0.195 0.032 0.402-0.022 0.619-0.162z" fill="#ffffff" data-fill-palette-color="primary"></path><path d="M223.498 250.443v0l6.066-4.9c0.201-0.162 0.312-0.342 0.333-0.538 0.031-0.195-0.013-0.367-0.132-0.514-0.114-0.141-0.27-0.218-0.468-0.228-0.197-0.021-0.395 0.05-0.596 0.212v0l-6.066 4.9c-0.201 0.162-0.315 0.344-0.341 0.545-0.025 0.191 0.019 0.357 0.133 0.499 0.119 0.147 0.274 0.228 0.466 0.243 0.202 0.017 0.403-0.056 0.605-0.219zM221.036 250.181v0l1.981-1.6c0.196-0.158 0.307-0.338 0.333-0.539 0.026-0.201-0.018-0.372-0.131-0.513-0.114-0.141-0.27-0.218-0.468-0.228-0.202-0.017-0.401 0.054-0.596 0.212v0l-1.981 1.6c-0.201 0.162-0.315 0.344-0.342 0.545-0.031 0.195 0.011 0.364 0.126 0.505 0.114 0.141 0.272 0.22 0.474 0.237 0.202 0.017 0.403-0.056 0.604-0.219zM226.482 245.782v0l1.982-1.6c0.201-0.162 0.312-0.342 0.333-0.539 0.026-0.201-0.018-0.372-0.132-0.513-0.114-0.141-0.27-0.218-0.468-0.229-0.197-0.021-0.395 0.05-0.596 0.212v0l-1.981 1.601c-0.196 0.158-0.307 0.338-0.333 0.538-0.031 0.195 0.011 0.364 0.125 0.506 0.114 0.141 0.272 0.22 0.474 0.236 0.202 0.017 0.401-0.054 0.597-0.212zM221.298 247.72v0l6.066-4.9c0.201-0.162 0.312-0.342 0.333-0.538 0.026-0.201-0.018-0.372-0.132-0.514-0.114-0.141-0.27-0.218-0.467-0.228-0.197-0.021-0.395 0.05-0.597 0.212v0l-6.066 4.9c-0.201 0.162-0.315 0.344-0.341 0.545-0.025 0.191 0.019 0.357 0.133 0.498 0.114 0.141 0.269 0.222 0.466 0.244 0.202 0.017 0.403-0.056 0.605-0.219zM224.276 243.051v0l1.981-1.601c0.201-0.162 0.314-0.339 0.34-0.53 0.026-0.201-0.018-0.372-0.132-0.513-0.114-0.141-0.272-0.22-0.474-0.237-0.192-0.015-0.389 0.058-0.59 0.22v0l-1.981 1.601c-0.196 0.158-0.309 0.335-0.34 0.53-0.026 0.201 0.018 0.372 0.132 0.513 0.114 0.141 0.272 0.22 0.474 0.237 0.198 0.011 0.394-0.062 0.59-0.22zM219.092 244.989v0l4.704-3.8c0.196-0.158 0.309-0.335 0.34-0.531 0.026-0.201-0.018-0.372-0.132-0.513-0.114-0.141-0.272-0.22-0.474-0.237-0.198-0.011-0.394 0.062-0.59 0.221v0l-4.704 3.8c-0.201 0.162-0.317 0.341-0.348 0.537-0.021 0.197 0.026 0.365 0.14 0.506 0.114 0.141 0.269 0.222 0.466 0.244 0.198 0.011 0.397-0.065 0.598-0.227z" fill="#ffffff" data-fill-palette-color="primary"></path><path d="M233.1 242.137v0l1.788-1.813c0.177-0.179 0.267-0.37 0.27-0.573 0.008-0.198-0.054-0.363-0.188-0.495-0.129-0.128-0.293-0.186-0.491-0.174-0.203 0.006-0.392 0.099-0.568 0.278v0l-1.789 1.813c-0.182 0.184-0.274 0.377-0.277 0.58-0.008 0.198 0.052 0.36 0.181 0.488 0.134 0.132 0.3 0.193 0.498 0.182 0.203-0.006 0.395-0.102 0.576-0.286zM239.244 235.906v0l1.789-1.814c0.182-0.184 0.272-0.375 0.27-0.573 0.008-0.198-0.054-0.363-0.189-0.495-0.129-0.128-0.293-0.186-0.49-0.174-0.198 0.001-0.387 0.094-0.569 0.278v0l-1.788 1.814c-0.177 0.179-0.267 0.37-0.27 0.572-0.008 0.198 0.052 0.36 0.181 0.488 0.134 0.132 0.3 0.193 0.498 0.182 0.203-0.006 0.392-0.099 0.568-0.278zM231.854 240.909v0l1.788-1.814c0.177-0.179 0.267-0.37 0.27-0.573 0.004-0.203-0.059-0.368-0.189-0.495-0.129-0.128-0.293-0.186-0.49-0.174-0.203 0.006-0.392 0.099-0.569 0.278v0l-1.788 1.814c-0.182 0.184-0.274 0.377-0.277 0.58-0.008 0.198 0.052 0.36 0.181 0.488 0.129 0.128 0.295 0.188 0.498 0.181 0.203-0.006 0.395-0.102 0.576-0.285zM235.452 237.259v0l0.736-0.746c0.137-0.139 0.203-0.305 0.196-0.498-0.006-0.193-0.074-0.353-0.203-0.481-0.129-0.128-0.288-0.191-0.476-0.189-0.193-0.004-0.358 0.064-0.495 0.204v0l-0.736 0.746c-0.137 0.139-0.203 0.305-0.196 0.498 0.001 0.188 0.067 0.345 0.196 0.473 0.129 0.128 0.29 0.193 0.483 0.197 0.193 0.004 0.358-0.064 0.495-0.204zM237.998 234.677v0l1.788-1.814c0.182-0.184 0.272-0.375 0.27-0.572 0.004-0.203-0.059-0.368-0.188-0.496-0.129-0.128-0.293-0.186-0.491-0.174-0.198 0.001-0.387 0.094-0.569 0.278v0l-1.788 1.814c-0.177 0.179-0.267 0.37-0.27 0.572-0.008 0.198 0.052 0.36 0.182 0.488 0.129 0.128 0.295 0.188 0.497 0.182 0.203-0.006 0.392-0.099 0.569-0.278zM230.607 239.68v0l7.933-8.046c0.182-0.184 0.272-0.375 0.27-0.572 0.004-0.203-0.059-0.368-0.189-0.495-0.129-0.128-0.293-0.186-0.49-0.175-0.198 0.001-0.387 0.094-0.569 0.278v0l-7.932 8.046c-0.182 0.184-0.274 0.377-0.278 0.58-0.008 0.198 0.052 0.36 0.182 0.488 0.129 0.128 0.295 0.188 0.497 0.181 0.203-0.006 0.395-0.102 0.576-0.285zM229.354 238.443v0l7.932-8.045c0.182-0.184 0.274-0.372 0.278-0.565 0.004-0.203-0.059-0.368-0.189-0.495-0.129-0.128-0.295-0.188-0.498-0.182-0.193 0.006-0.38 0.102-0.561 0.286v0l-7.933 8.045c-0.182 0.184-0.277 0.375-0.285 0.573-0.004 0.203 0.059 0.368 0.189 0.495 0.129 0.128 0.295 0.188 0.498 0.182 0.198-0.011 0.387-0.109 0.569-0.294zM228.107 237.215v0l1.788-1.814c0.177-0.179 0.269-0.368 0.278-0.565 0.004-0.203-0.059-0.368-0.189-0.495-0.129-0.128-0.295-0.188-0.498-0.182-0.198 0.011-0.385 0.106-0.561 0.285v0l-1.788 1.814c-0.182 0.184-0.277 0.375-0.285 0.573-0.004 0.203 0.059 0.368 0.189 0.495 0.129 0.128 0.295 0.188 0.498 0.182 0.198-0.011 0.387-0.109 0.568-0.293zM233.023 232.229v0l1.788-1.813c0.182-0.184 0.274-0.372 0.277-0.566 0.004-0.203-0.059-0.368-0.188-0.495-0.129-0.128-0.295-0.188-0.498-0.182-0.193 0.006-0.38 0.102-0.561 0.286v0l-1.789 1.814c-0.177 0.179-0.269 0.368-0.277 0.565-0.004 0.203 0.059 0.368 0.189 0.495 0.129 0.128 0.295 0.188 0.497 0.182 0.198-0.011 0.385-0.106 0.562-0.286z" fill="#ffffff" data-fill-palette-color="primary"></path><path d="M244.089 230.319v0l3.797-4.708c0.158-0.196 0.229-0.395 0.212-0.596-0.011-0.198-0.09-0.356-0.237-0.474-0.141-0.114-0.31-0.156-0.506-0.125-0.201 0.026-0.38 0.138-0.538 0.333v0l-3.796 4.708c-0.162 0.201-0.235 0.403-0.219 0.604 0.016 0.192 0.094 0.345 0.236 0.46 0.147 0.118 0.316 0.165 0.507 0.139 0.201-0.026 0.382-0.14 0.544-0.341zM241.628 230.582v0l1.599-1.982c0.158-0.196 0.229-0.395 0.212-0.597-0.017-0.202-0.096-0.36-0.237-0.474-0.141-0.114-0.31-0.156-0.505-0.125-0.201 0.026-0.38 0.138-0.539 0.334v0l-1.598 1.982c-0.162 0.201-0.235 0.403-0.219 0.605 0.011 0.198 0.088 0.353 0.229 0.467 0.141 0.114 0.313 0.158 0.513 0.132 0.201-0.026 0.382-0.14 0.545-0.342zM240.266 229.483v0l5.994-7.432c0.162-0.201 0.233-0.4 0.212-0.596-0.017-0.202-0.096-0.36-0.237-0.474-0.141-0.114-0.31-0.156-0.506-0.125-0.197 0.021-0.376 0.132-0.538 0.333v0l-5.994 7.432c-0.162 0.201-0.235 0.403-0.218 0.605 0.011 0.198 0.088 0.353 0.229 0.468 0.141 0.114 0.313 0.158 0.513 0.131 0.201-0.026 0.382-0.14 0.545-0.342zM238.895 228.378v0l1.599-1.982c0.158-0.196 0.231-0.392 0.22-0.59-0.017-0.202-0.096-0.36-0.237-0.474-0.141-0.114-0.313-0.158-0.513-0.132-0.195 0.031-0.372 0.144-0.53 0.34v0l-1.599 1.983c-0.162 0.201-0.238 0.401-0.227 0.598 0.017 0.202 0.096 0.36 0.237 0.474 0.141 0.114 0.313 0.158 0.514 0.131 0.195-0.031 0.374-0.147 0.536-0.348zM243.29 222.928v0l1.599-1.982c0.162-0.201 0.236-0.398 0.22-0.59-0.017-0.202-0.096-0.36-0.237-0.474-0.141-0.114-0.313-0.158-0.513-0.131-0.191 0.025-0.368 0.139-0.53 0.34v0l-1.599 1.982c-0.158 0.196-0.231 0.392-0.22 0.59 0.017 0.202 0.096 0.36 0.237 0.474 0.141 0.114 0.313 0.158 0.513 0.131 0.195-0.031 0.372-0.144 0.53-0.34zM238.632 225.917v0l3.796-4.707c0.158-0.196 0.231-0.392 0.22-0.59-0.017-0.202-0.096-0.36-0.237-0.474-0.141-0.114-0.313-0.158-0.513-0.132-0.195 0.031-0.372 0.144-0.53 0.34v0l-3.797 4.707c-0.162 0.201-0.238 0.401-0.226 0.599 0.021 0.197 0.102 0.352 0.243 0.465 0.141 0.114 0.31 0.161 0.507 0.14 0.195-0.031 0.374-0.147 0.537-0.348z" fill="#ffffff" data-fill-palette-color="primary"></path><path d="M251.721 220.205v0l4.225-6.554c0.136-0.211 0.185-0.417 0.148-0.615-0.032-0.195-0.127-0.344-0.286-0.447-0.153-0.098-0.325-0.122-0.516-0.07-0.197 0.048-0.364 0.177-0.5 0.388v0l-4.225 6.554c-0.14 0.217-0.191 0.425-0.153 0.625 0.032 0.195 0.124 0.342 0.277 0.44 0.159 0.102 0.333 0.128 0.525 0.077 0.197-0.048 0.365-0.18 0.505-0.398zM254.043 213.372v0l1.38-2.14c0.14-0.217 0.189-0.423 0.148-0.616-0.038-0.199-0.133-0.348-0.286-0.446-0.153-0.098-0.325-0.122-0.516-0.071-0.193 0.042-0.36 0.171-0.5 0.389v0l-1.38 2.141c-0.136 0.211-0.185 0.417-0.147 0.615 0.032 0.195 0.124 0.342 0.277 0.441 0.153 0.098 0.328 0.124 0.525 0.076 0.197-0.048 0.364-0.177 0.499-0.389zM249.727 216.838v0l3.277-5.083c0.136-0.211 0.185-0.417 0.147-0.616-0.038-0.199-0.133-0.348-0.286-0.446-0.153-0.098-0.325-0.122-0.515-0.071-0.197 0.048-0.364 0.177-0.5 0.389v0l-3.277 5.083c-0.14 0.217-0.191 0.425-0.153 0.624 0.036 0.189 0.13 0.333 0.283 0.432 0.153 0.098 0.326 0.127 0.519 0.085 0.197-0.048 0.365-0.18 0.505-0.397zM247.299 217.355v0l1.38-2.141c0.136-0.211 0.188-0.415 0.156-0.61-0.038-0.199-0.133-0.348-0.286-0.446-0.153-0.098-0.328-0.124-0.524-0.076-0.191 0.051-0.355 0.183-0.491 0.394v0l-1.38 2.141c-0.14 0.217-0.194 0.424-0.162 0.618 0.038 0.199 0.133 0.348 0.286 0.447 0.153 0.098 0.328 0.124 0.524 0.076 0.191-0.051 0.357-0.186 0.497-0.403zM246.776 214.935v0l4.225-6.554c0.14-0.217 0.192-0.421 0.156-0.61-0.038-0.199-0.133-0.348-0.286-0.446-0.153-0.098-0.328-0.124-0.524-0.076-0.187 0.046-0.351 0.177-0.491 0.394v0l-4.225 6.554c-0.14 0.217-0.194 0.424-0.162 0.619 0.042 0.193 0.139 0.339 0.292 0.437 0.153 0.098 0.326 0.127 0.519 0.085 0.191-0.051 0.357-0.186 0.496-0.403z" fill="#ffffff" data-fill-palette-color="primary"></path><path d="M260.848 204.907v0l1.205-2.243c0.119-0.222 0.152-0.43 0.099-0.626-0.048-0.192-0.154-0.333-0.321-0.422-0.16-0.086-0.333-0.096-0.52-0.029-0.193 0.063-0.348 0.205-0.467 0.427v0l-1.205 2.244c-0.122 0.228-0.155 0.436-0.099 0.625 0.048 0.192 0.151 0.331 0.312 0.417 0.166 0.089 0.342 0.101 0.529 0.034 0.189-0.057 0.345-0.199 0.467-0.427zM256.213 202.417v0l1.206-2.243c0.119-0.222 0.155-0.428 0.107-0.621-0.054-0.195-0.16-0.336-0.32-0.422-0.16-0.086-0.336-0.097-0.529-0.034-0.186 0.066-0.339 0.21-0.459 0.432v0l-1.205 2.243c-0.122 0.228-0.158 0.435-0.107 0.621 0.054 0.195 0.16 0.336 0.32 0.422 0.16 0.086 0.336 0.097 0.529 0.034 0.183-0.06 0.336-0.204 0.458-0.432zM254.671 201.589v0l1.206-2.244c0.119-0.222 0.155-0.428 0.107-0.62-0.054-0.195-0.16-0.336-0.32-0.422-0.16-0.086-0.336-0.097-0.529-0.035-0.186 0.066-0.339 0.21-0.458 0.432v0l-1.206 2.244c-0.122 0.228-0.158 0.435-0.107 0.62 0.054 0.195 0.16 0.336 0.32 0.422 0.16 0.086 0.336 0.097 0.529 0.035 0.183-0.06 0.336-0.204 0.458-0.432zM253.13 200.76v0l1.205-2.243c0.119-0.222 0.155-0.428 0.107-0.621-0.054-0.195-0.16-0.336-0.32-0.422-0.16-0.086-0.336-0.097-0.529-0.034-0.186 0.066-0.339 0.21-0.458 0.432v0l-1.206 2.243c-0.122 0.228-0.158 0.435-0.107 0.621 0.054 0.195 0.16 0.336 0.321 0.422 0.16 0.086 0.336 0.097 0.528 0.034 0.183-0.06 0.336-0.204 0.459-0.432zM251.588 199.932v0l1.205-2.244c0.119-0.222 0.155-0.428 0.108-0.62-0.054-0.195-0.16-0.336-0.321-0.422-0.16-0.086-0.336-0.097-0.529-0.034-0.186 0.066-0.339 0.21-0.458 0.432v0l-1.205 2.243c-0.122 0.228-0.158 0.435-0.108 0.621 0.054 0.195 0.16 0.336 0.321 0.422 0.16 0.086 0.336 0.097 0.529 0.034 0.183-0.06 0.336-0.204 0.458-0.432z" fill="#ffffff" data-fill-palette-color="primary"></path></g></svg></g></svg></g></svg></g></svg></g></svg></g></svg></g><defs></defs></svg><rect width="512" height="320" fill="none" stroke="none" visibility="hidden"></rect></g></svg></g></svg>